999
dxflib 3.26.4.0
  0
SECTION
  2
HEADER
  9
$ACADVER
  1
AC1015
  9
$HANDSEED
  5
FFFF
  9
$DIMADEC
 70
0
  9
$DIMASZ
 40
2.5
  9
$DIMATFIT
 70
0
  9
$DIMAUNIT
 70
0
  9
$DIMAZIN
 70
2
  9
$DIMBLK
  1
0
  9
$DIMBLK1
  1
0
  9
$DIMBLK2
  1
0
  9
$DIMDEC
 70
4
  9
$DIMDLI
 40
5.0
  9
$DIMDSEP
 70
46
  9
$DIMEXE
 40
1.25
  9
$DIMEXO
 40
0.625
  9
$DIMGAP
 40
0.625
  9
$DIMLFAC
 40
0.0
  9
$DIMLUNIT
 70
2
  9
$DIMSCALE
 40
1.0
  9
$DIMTAD
 70
1
  9
$DIMTIH
 70
0
  9
$DIMTSZ
 40
0.0
  9
$DIMTXT
 40
2.5
  9
$DIMZIN
 70
8
  9
$DWGCODEPAGE
  3
ANSI_1252
  9
$INSUNITS
 70
4
  9
$LTSCALE
 40
1.0
  9
$MAXACTVP
 70
64
  9
$MEASUREMENT
 70
1
  9
$MIRRTEXT
 70
0
  9
$PDMODE
 70
0
  9
$PDSIZE
 40
0.0
  0
ENDSEC
  0
SECTION
  2
TABLES
  0
TABLE
  2
VPORT
  5
8
100
AcDbSymbolTable
 70
1
  0
VPORT
  5
30
100
AcDbSymbolTableRecord
100
AcDbViewportTableRecord
  2
*Active
 70
0
 10
0.0
 20
0.0
 11
1.0
 21
1.0
 12
286.3055555555554861
 22
148.5
 13
0.0
 23
0.0
 14
10.0
 24
10.0
 15
10.0
 25
10.0
 16
0.0
 26
0.0
 36
1.0
 17
0.0
 27
0.0
 37
0.0
 40
297.0
 41
1.92798353909465
 42
50.0
 43
0.0
 44
0.0
 50
0.0
 51
0.0
 71
0
 72
100
 73
1
 74
3
 75
1
 76
1
 77
0
 78
0
281
0
 65
1
110
0.0
120
0.0
130
0.0
111
1.0
121
0.0
131
0.0
112
0.0
122
1.0
132
0.0
 79
0
146
0.0
  0
ENDTAB
  0
TABLE
  2
LTYPE
  5
5
100
AcDbSymbolTable
 70
41
  0
LTYPE
  5
16
100
AcDbSymbolTableRecord
100
AcDbLinetypeTableRecord
  2
Continuous
 70
0
  3
Solid line
 72
65
 73
0
 40
0.0
  0
LTYPE
  5
31
100
AcDbSymbolTableRecord
100
AcDbLinetypeTableRecord
  2
PHANTOM
 70
0
  3
Phantom ______  __  __  ______  __  __  ______ 
 72
65
 73
6
 40
63.5000000000000071
 49
31.75
 74
0
 49
-6.3499999999999996
 74
0
 49
6.3499999999999996
 74
0
 49
-6.3499999999999996
 74
0
 49
6.3499999999999996
 74
0
 49
-6.3499999999999996
 74
0
  0
LTYPE
  5
32
100
AcDbSymbolTableRecord
100
AcDbLinetypeTableRecord
  2
PHANTOM2
 70
0
  3
Phantom (.5x) ___ _ _ ___ _ _ ___ _ _ ___ _ _
 72
65
 73
6
 40
31.7500000000000036
 49
15.875
 74
0
 49
-3.1749999999999998
 74
0
 49
3.1749999999999998
 74
0
 49
-3.1749999999999998
 74
0
 49
3.1749999999999998
 74
0
 49
-3.1749999999999998
 74
0
  0
LTYPE
  5
33
100
AcDbSymbolTableRecord
100
AcDbLinetypeTableRecord
  2
ACAD_ISO09W100
 70
0
  3
ISO long-dash double-short-dash ____ __ __ ____
 72
65
 73
6
 40
45.0
 49
24.0
 74
0
 49
-3.0
 74
0
 49
6.0
 74
0
 49
-3.0
 74
0
 49
6.0
 74
0
 49
-3.0
 74
0
  0
LTYPE
  5
34
100
AcDbSymbolTableRecord
100
AcDbLinetypeTableRecord
  2
DASHED2
 70
0
  3
Dashed (.5x) _ _ _ _ _ _ _ _ _ _ _ _ _ _ _ _ _ 
 72
65
 73
2
 40
9.5249999999999986
 49
6.3499999999999996
 74
0
 49
-3.1749999999999998
 74
0
  0
LTYPE
  5
35
100
AcDbSymbolTableRecord
100
AcDbLinetypeTableRecord
  2
ACAD_ISO12W100
 70
0
  3
ISO dash double-dot __ . . __ . . __ . . __ . . 
 72
65
 73
6
 40
21.0
 49
12.0
 74
0
 49
-2.9500000000000002
 74
0
 49
0.1
 74
0
 49
-2.9000000000000004
 74
0
 49
0.1
 74
0
 49
-2.9500000000000002
 74
0
  0
LTYPE
  5
36
100
AcDbSymbolTableRecord
100
AcDbLinetypeTableRecord
  2
DASHED
 70
0
  3
Dashed __ __ __ __ __ __ __ __ __ __ __ __ __ _
 72
65
 73
2
 40
19.0499999999999972
 49
12.6999999999999993
 74
0
 49
-6.3499999999999996
 74
0
  0
LTYPE
  5
37
100
AcDbSymbolTableRecord
100
AcDbLinetypeTableRecord
  2
DIVIDE
 70
0
  3
Divide ____ . . ____ . . ____ . . ____ . . ____
 72
65
 73
6
 40
31.7500000000000036
 49
12.6999999999999993
 74
0
 49
-6.2999999999999998
 74
0
 49
0.1
 74
0
 49
-6.25
 74
0
 49
0.1
 74
0
 49
-6.2999999999999998
 74
0
  0
LTYPE
  5
38
100
AcDbSymbolTableRecord
100
AcDbLinetypeTableRecord
  2
CENTER2
 70
0
  3
Center (.5x) ___ _ ___ _ ___ _ ___ _ ___ _ ___
 72
65
 73
4
 40
28.5750000000000028
 49
19.0500000000000007
 74
0
 49
-3.1749999999999998
 74
0
 49
3.1749999999999998
 74
0
 49
-3.1749999999999998
 74
0
  0
LTYPE
  5
39
100
AcDbSymbolTableRecord
100
AcDbLinetypeTableRecord
  2
ACAD_ISO10W100
 70
0
  3
ISO dash dot __ . __ . __ . __ . __ . __ . __ . 
 72
65
 73
4
 40
18.0
 49
12.0
 74
0
 49
-2.9500000000000002
 74
0
 49
0.1
 74
0
 49
-2.9500000000000002
 74
0
  0
LTYPE
  5
3A
100
AcDbSymbolTableRecord
100
AcDbLinetypeTableRecord
  2
ACAD_ISO14W100
 70
0
  3
ISO dash triple-dot __ . . . __ . . . __ . . . _
 72
65
 73
8
 40
24.0000000000000036
 49
12.0
 74
0
 49
-2.9500000000000002
 74
0
 49
0.1
 74
0
 49
-2.9000000000000004
 74
0
 49
0.1
 74
0
 49
-2.9000000000000004
 74
0
 49
0.1
 74
0
 49
-2.9500000000000002
 74
0
  0
LTYPE
  5
3B
100
AcDbSymbolTableRecord
100
AcDbLinetypeTableRecord
  2
ACAD_ISO07W100
 70
0
  3
ISO dot . . . . . . . . . . . . . . . . . . . . 
 72
65
 73
2
 40
3.0
 49
0.1
 74
0
 49
-2.8999999999999999
 74
0
  0
LTYPE
  5
3C
100
AcDbSymbolTableRecord
100
AcDbLinetypeTableRecord
  2
ACAD_ISO11W100
 70
0
  3
ISO double-dash dot __ __ . __ __ . __ __ . __ _
 72
65
 73
6
 40
33.0
 49
12.0
 74
0
 49
-3.0
 74
0
 49
12.0
 74
0
 49
-2.9500000000000002
 74
0
 49
0.1
 74
0
 49
-2.9500000000000002
 74
0
  0
LTYPE
  5
3D
100
AcDbSymbolTableRecord
100
AcDbLinetypeTableRecord
  2
ACAD_ISO08W100
 70
0
  3
ISO long-dash short-dash ____ __ ____ __ ____ _
 72
65
 73
4
 40
36.0
 49
24.0
 74
0
 49
-3.0
 74
0
 49
6.0
 74
0
 49
-3.0
 74
0
  0
LTYPE
  5
3E
100
AcDbSymbolTableRecord
100
AcDbLinetypeTableRecord
  2
ACAD_ISO03W100
 70
0
  3
ISO dash space __    __    __    __    __    __
 72
65
 73
2
 40
30.0
 49
12.0
 74
0
 49
-18.0
 74
0
  0
LTYPE
  5
3F
100
AcDbSymbolTableRecord
100
AcDbLinetypeTableRecord
  2
DASHDOT
 70
0
  3
Dash dot __ . __ . __ . __ . __ . __ . __ . __
 72
65
 73
4
 40
25.4000000000000021
 49
12.6999999999999993
 74
0
 49
-6.2999999999999998
 74
0
 49
0.1
 74
0
 49
-6.2999999999999998
 74
0
  0
LTYPE
  5
40
100
AcDbSymbolTableRecord
100
AcDbLinetypeTableRecord
  2
BORDERX2
 70
0
  3
Border (2x) ____  ____  .  ____  ____  .  ___
 72
65
 73
6
 40
88.8999999999999773
 49
25.3999999999999986
 74
0
 49
-12.6999999999999993
 74
0
 49
25.3999999999999986
 74
0
 49
-12.6499999999999986
 74
0
 49
0.1
 74
0
 49
-12.6499999999999986
 74
0
  0
LTYPE
  5
41
100
AcDbSymbolTableRecord
100
AcDbLinetypeTableRecord
  2
PHANTOMX2
 70
0
  3
Phantom (2x) ____________    ____    ____   _
 72
65
 73
6
 40
127.0000000000000142
 49
63.5
 74
0
 49
-12.6999999999999993
 74
0
 49
12.6999999999999993
 74
0
 49
-12.6999999999999993
 74
0
 49
12.6999999999999993
 74
0
 49
-12.6999999999999993
 74
0
  0
LTYPE
  5
42
100
AcDbSymbolTableRecord
100
AcDbLinetypeTableRecord
  2
ACAD_ISO04W100
 70
0
  3
ISO long-dash dot ____ . ____ . ____ . ____ . _
 72
65
 73
4
 40
30.0
 49
24.0
 74
0
 49
-2.9500000000000002
 74
0
 49
0.1
 74
0
 49
-2.9500000000000002
 74
0
  0
LTYPE
  5
43
100
AcDbSymbolTableRecord
100
AcDbLinetypeTableRecord
  2
DOT2
 70
0
  3
Dot (.5x) ........................................
 72
65
 73
2
 40
3.1749999999999998
 49
0.1
 74
0
 49
-3.0749999999999997
 74
0
  0
LTYPE
  5
44
100
AcDbSymbolTableRecord
100
AcDbLinetypeTableRecord
  2
ACAD_ISO05W100
 70
0
  3
ISO long-dash double-dot ____ .. ____ .. ____ . 
 72
65
 73
6
 40
33.0000000000000071
 49
24.0
 74
0
 49
-2.9500000000000002
 74
0
 49
0.1
 74
0
 49
-2.9000000000000004
 74
0
 49
0.1
 74
0
 49
-2.9500000000000002
 74
0
  0
LTYPE
  5
45
100
AcDbSymbolTableRecord
100
AcDbLinetypeTableRecord
  2
CENTER
 70
0
  3
Center ____ _ ____ _ ____ _ ____ _ ____ _ ____
 72
65
 73
4
 40
50.8000000000000043
 49
31.75
 74
0
 49
-6.3499999999999996
 74
0
 49
6.3499999999999996
 74
0
 49
-6.3499999999999996
 74
0
  0
LTYPE
  5
46
100
AcDbSymbolTableRecord
100
AcDbLinetypeTableRecord
  2
BORDER2
 70
0
  3
Border (.5x) __.__.__.__.__.__.__.__.__.__.__.
 72
65
 73
6
 40
22.2250000000000014
 49
6.3499999999999996
 74
0
 49
-3.1749999999999998
 74
0
 49
6.3499999999999996
 74
0
 49
-3.125
 74
0
 49
0.1
 74
0
 49
-3.125
 74
0
  0
LTYPE
  5
47
100
AcDbSymbolTableRecord
100
AcDbLinetypeTableRecord
  2
ACAD_ISO02W100
 70
0
  3
ISO dash __ __ __ __ __ __ __ __ __ __ __ __ __
 72
65
 73
2
 40
15.0
 49
12.0
 74
0
 49
-3.0
 74
0
  0
LTYPE
  5
48
100
AcDbSymbolTableRecord
100
AcDbLinetypeTableRecord
  2
CENTERX2
 70
0
  3
Center (2x) ________  __  ________  __  _____
 72
65
 73
4
 40
101.6000000000000085
 49
63.5
 74
0
 49
-12.6999999999999993
 74
0
 49
12.6999999999999993
 74
0
 49
-12.6999999999999993
 74
0
  0
LTYPE
  5
49
100
AcDbSymbolTableRecord
100
AcDbLinetypeTableRecord
  2
HIDDEN2
 70
0
  3
Hidden (.5x) _ _ _ _ _ _ _ _ _ _ _ _ _ _ _ _ _ 
 72
65
 73
2
 40
4.7624999999999993
 49
3.1749999999999998
 74
0
 49
-1.5874999999999999
 74
0
  0
LTYPE
  5
4A
100
AcDbSymbolTableRecord
100
AcDbLinetypeTableRecord
  2
DOT
 70
0
  3
Dot . . . . . . . . . . . . . . . . . . . . . . . .
 72
65
 73
2
 40
6.3499999999999996
 49
0.1
 74
0
 49
-6.25
 74
0
  0
LTYPE
  5
4B
100
AcDbSymbolTableRecord
100
AcDbLinetypeTableRecord
  2
DIVIDEX2
 70
0
  3
Divide (2x) ________  .  .  ________  .  .  _
 72
65
 73
6
 40
63.5
 49
25.3999999999999986
 74
0
 49
-12.6499999999999986
 74
0
 49
0.1
 74
0
 49
-12.5999999999999979
 74
0
 49
0.1
 74
0
 49
-12.6499999999999986
 74
0
  0
LTYPE
  5
4C
100
AcDbSymbolTableRecord
100
AcDbLinetypeTableRecord
  2
ACAD_ISO13W100
 70
0
  3
ISO double-dash double-dot __ __ . . __ __ . . _
 72
65
 73
8
 40
36.0000000000000071
 49
12.0
 74
0
 49
-3.0
 74
0
 49
12.0
 74
0
 49
-2.9500000000000002
 74
0
 49
0.1
 74
0
 49
-2.9000000000000004
 74
0
 49
0.1
 74
0
 49
-2.9500000000000002
 74
0
  0
LTYPE
  5
4D
100
AcDbSymbolTableRecord
100
AcDbLinetypeTableRecord
  2
DASHDOTX2
 70
0
  3
Dash dot (2x) ____  .  ____  .  ____  .  ___
 72
65
 73
4
 40
50.7999999999999972
 49
25.3999999999999986
 74
0
 49
-12.6499999999999986
 74
0
 49
0.1
 74
0
 49
-12.6499999999999986
 74
0
  0
LTYPE
  5
4E
100
AcDbSymbolTableRecord
100
AcDbLinetypeTableRecord
  2
DASHEDX2
 70
0
  3
Dashed (2x) ____  ____  ____  ____  ____  ___
 72
65
 73
2
 40
38.0999999999999943
 49
25.3999999999999986
 74
0
 49
-12.6999999999999993
 74
0
  0
LTYPE
  5
4F
100
AcDbSymbolTableRecord
100
AcDbLinetypeTableRecord
  2
BORDER
 70
0
  3
Border __ __ . __ __ . __ __ . __ __ . __ __ .
 72
65
 73
6
 40
44.4499999999999957
 49
12.6999999999999993
 74
0
 49
-6.3499999999999996
 74
0
 49
12.6999999999999993
 74
0
 49
-6.2999999999999998
 74
0
 49
0.1
 74
0
 49
-6.2999999999999998
 74
0
  0
LTYPE
  5
50
100
AcDbSymbolTableRecord
100
AcDbLinetypeTableRecord
  2
ACAD_ISO15W100
 70
0
  3
ISO double-dash triple-dot __ __ . . . __ __ . .
 72
65
 73
10
 40
39.0000000000000071
 49
12.0
 74
0
 49
-3.0
 74
0
 49
12.0
 74
0
 49
-2.9500000000000002
 74
0
 49
0.1
 74
0
 49
-2.9000000000000004
 74
0
 49
0.1
 74
0
 49
-2.9000000000000004
 74
0
 49
0.1
 74
0
 49
-2.9500000000000002
 74
0
  0
LTYPE
  5
51
100
AcDbSymbolTableRecord
100
AcDbLinetypeTableRecord
  2
DASHDOT2
 70
0
  3
Dash dot (.5x) _._._._._._._._._._._._._._._.
 72
65
 73
4
 40
12.6999999999999993
 49
6.3499999999999996
 74
0
 49
-3.125
 74
0
 49
0.1
 74
0
 49
-3.125
 74
0
  0
LTYPE
  5
52
100
AcDbSymbolTableRecord
100
AcDbLinetypeTableRecord
  2
HIDDEN
 70
0
  3
Hidden __ __ __ __ __ __ __ __ __ __ __ __ __ __
 72
65
 73
2
 40
9.5249999999999986
 49
6.3499999999999996
 74
0
 49
-3.1749999999999998
 74
0
  0
LTYPE
  5
53
100
AcDbSymbolTableRecord
100
AcDbLinetypeTableRecord
  2
DIVIDE2
 70
0
  3
Divide (.5x) __..__..__..__..__..__..__..__.._
 72
65
 73
6
 40
15.8749999999999982
 49
6.3499999999999996
 74
0
 49
-3.125
 74
0
 49
0.1
 74
0
 49
-3.0750000000000002
 74
0
 49
0.1
 74
0
 49
-3.125
 74
0
  0
LTYPE
  5
54
100
AcDbSymbolTableRecord
100
AcDbLinetypeTableRecord
  2
HIDDENX2
 70
0
  3
Hidden (2x) ____ ____ ____ ____ ____ ____ ____ 
 72
65
 73
2
 40
19.0499999999999972
 49
12.6999999999999993
 74
0
 49
-6.3499999999999996
 74
0
  0
LTYPE
  5
55
100
AcDbSymbolTableRecord
100
AcDbLinetypeTableRecord
  2
DOTX2
 70
0
  3
Dot (2x) .  .  .  .  .  .  .  .  .  .  .  .  .  .
 72
65
 73
2
 40
12.6999999999999993
 49
0.1
 74
0
 49
-12.5999999999999996
 74
0
  0
LTYPE
  5
15
100
AcDbSymbolTableRecord
100
AcDbLinetypeTableRecord
  2
BYLAYER
 70
0
  3

 72
65
 73
0
 40
0.0
  0
LTYPE
  5
56
100
AcDbSymbolTableRecord
100
AcDbLinetypeTableRecord
  2
ACAD_ISO06W100
 70
0
  3
ISO long-dash triple-dot ____ ... ____ ... ____
 72
65
 73
8
 40
36.0000000000000071
 49
24.0
 74
0
 49
-2.9500000000000002
 74
0
 49
0.1
 74
0
 49
-2.9000000000000004
 74
0
 49
0.1
 74
0
 49
-2.9000000000000004
 74
0
 49
0.1
 74
0
 49
-2.9500000000000002
 74
0
  0
LTYPE
  5
14
100
AcDbSymbolTableRecord
100
AcDbLinetypeTableRecord
  2
BYBLOCK
 70
0
  3

 72
65
 73
0
 40
0.0
  0
ENDTAB
  0
TABLE
  2
LAYER
  5
2
100
AcDbSymbolTable
 70
1
  0
LAYER
  5
10
100
AcDbSymbolTableRecord
100
AcDbLayerTableRecord
  2
0
 70
0
 62
7
420
16777215
  6
Continuous
370
25
390
F
  0
ENDTAB
  0
TABLE
  2
STYLE
  5
3
100
AcDbSymbolTable
 70
1
  0
STYLE
  5
57
100
AcDbSymbolTableRecord
100
AcDbTextStyleTableRecord
  2
Standard
 70
0
 40
0.0
 41
1.0
 50
0.0
 71
0
 42
2.5
  3

  4

1001
ACAD
1000
txt
1071
0
  0
ENDTAB
  0
TABLE
  2
VIEW
  5
6
100
AcDbSymbolTable
 70
0
  0
ENDTAB
  0
TABLE
  2
UCS
  5
7
100
AcDbSymbolTable
 70
0
  0
ENDTAB
  0
TABLE
  2
APPID
  5
9
100
AcDbSymbolTable
 70
1
  0
APPID
  5
12
100
AcDbSymbolTableRecord
100
AcDbRegAppTableRecord
  2
ACAD
 70
0
  0
APPID
  5
58
100
AcDbSymbolTableRecord
100
AcDbRegAppTableRecord
  2
QCAD
 70
0
  0
ENDTAB
  0
TABLE
  2
DIMSTYLE
  5
A
100
AcDbSymbolTable
 70
1
100
AcDbDimStyleTable
 71
0
  0
DIMSTYLE
105
27
100
AcDbSymbolTableRecord
100
AcDbDimStyleTableRecord
  2
Standard
 41
2.5
 42
0.625
 43
3.75
 44
1.25
 70
0
 73
0
 74
0
 77
1
 78
8
140
2.5
141
2.5
143
0.03937007874016
147
0.625
171
3
172
1
271
2
272
2
274
3
278
44
283
0
284
8
340
57
  0
ENDTAB
  0
TABLE
  2
BLOCK_RECORD
  5
1
100
AcDbSymbolTable
 70
1
  0
BLOCK_RECORD
  5
1F
100
AcDbSymbolTableRecord
100
AcDbBlockTableRecord
  2
*Model_Space
340
22
  0
BLOCK_RECORD
  5
1B
100
AcDbSymbolTableRecord
100
AcDbBlockTableRecord
  2
*Paper_Space
340
1E
  0
BLOCK_RECORD
  5
23
100
AcDbSymbolTableRecord
100
AcDbBlockTableRecord
  2
*Paper_Space0
340
26
  0
ENDTAB
  0
ENDSEC
  0
SECTION
  2
BLOCKS
  0
BLOCK
  5
20
100
AcDbEntity
  8
0
100
AcDbBlockBegin
  2
*Model_Space
 70
0
 10
0.0
 20
0.0
 30
0.0
  3
*Model_Space
  1

  0
ENDBLK
  5
21
100
AcDbEntity
  8
0
100
AcDbBlockEnd
  0
BLOCK
  5
1C
100
AcDbEntity
 67
1
  8
0
100
AcDbBlockBegin
  2
*Paper_Space
 70
0
 10
0.0
 20
0.0
 30
0.0
  3
*Paper_Space
  1

  0
ENDBLK
  5
1D
100
AcDbEntity
 67
1
  8
0
100
AcDbBlockEnd
  0
BLOCK
  5
24
100
AcDbEntity
  8
0
100
AcDbBlockBegin
  2
*Paper_Space0
 70
0
 10
0.0
 20
0.0
 30
0.0
  3
*Paper_Space0
  1

  0
ENDBLK
  5
25
100
AcDbEntity
  8
0
100
AcDbBlockEnd
  0
ENDSEC
  0
SECTION
  2
ENTITIES
  0
ARC
  5
59
100
AcDbEntity
  8
0
 62
256
370
-1
 48
1.0
  6
BYLAYER
100
AcDbCircle
 10
0.0
 20
0.0
 30
0.0
 40
25.0
100
AcDbArc
 50
82.5
 51
88.8599999999999994
  0
ARC
  5
5A
100
AcDbEntity
  8
0
 62
256
370
-1
 48
1.0
  6
BYLAYER
100
AcDbCircle
 10
0.0
 20
0.0
 30
0.0
 40
25.0
100
AcDbArc
 50
91.1400000000000148
 51
97.5000000000000142
  0
ARC
  5
5B
100
AcDbEntity
  8
0
 62
256
370
-1
 48
1.0
  6
BYLAYER
100
AcDbCircle
 10
0.0
 20
0.0
 30
0.0
 40
25.0
100
AcDbArc
 50
97.5
 51
103.8599999999999852
  0
ARC
  5
5C
100
AcDbEntity
  8
0
 62
256
370
-1
 48
1.0
  6
BYLAYER
100
AcDbCircle
 10
0.0
 20
0.0
 30
0.0
 40
25.0
100
AcDbArc
 50
106.1400000000000006
 51
112.5
  0
ARC
  5
5D
100
AcDbEntity
  8
0
 62
256
370
-1
 48
1.0
  6
BYLAYER
100
AcDbCircle
 10
0.0
 20
0.0
 30
0.0
 40
25.0
100
AcDbArc
 50
112.5
 51
118.8599999999999852
  0
ARC
  5
5E
100
AcDbEntity
  8
0
 62
256
370
-1
 48
1.0
  6
BYLAYER
100
AcDbCircle
 10
0.0
 20
0.0
 30
0.0
 40
25.0
100
AcDbArc
 50
121.1399999999999864
 51
127.5
  0
ARC
  5
5F
100
AcDbEntity
  8
0
 62
256
370
-1
 48
1.0
  6
BYLAYER
100
AcDbCircle
 10
0.0
 20
0.0
 30
0.0
 40
25.0
100
AcDbArc
 50
127.5
 51
133.8599999999999852
  0
ARC
  5
60
100
AcDbEntity
  8
0
 62
256
370
-1
 48
1.0
  6
BYLAYER
100
AcDbCircle
 10
0.0
 20
0.0
 30
0.0
 40
25.0
100
AcDbArc
 50
136.1400000000000148
 51
142.5
  0
ARC
  5
61
100
AcDbEntity
  8
0
 62
256
370
-1
 48
1.0
  6
BYLAYER
100
AcDbCircle
 10
0.0
 20
0.0
 30
0.0
 40
25.0
100
AcDbArc
 50
142.5
 51
148.8600000000000136
  0
ARC
  5
62
100
AcDbEntity
  8
0
 62
256
370
-1
 48
1.0
  6
BYLAYER
100
AcDbCircle
 10
0.0
 20
0.0
 30
0.0
 40
25.0
100
AcDbArc
 50
151.1400000000000148
 51
157.5
  0
ARC
  5
63
100
AcDbEntity
  8
0
 62
256
370
-1
 48
1.0
  6
BYLAYER
100
AcDbCircle
 10
0.0
 20
0.0
 30
0.0
 40
25.0
100
AcDbArc
 50
157.4999999999999716
 51
163.8599999999999852
  0
ARC
  5
64
100
AcDbEntity
  8
0
 62
256
370
-1
 48
1.0
  6
BYLAYER
100
AcDbCircle
 10
0.0
 20
0.0
 30
0.0
 40
25.0
100
AcDbArc
 50
166.1399999999999864
 51
172.5
  0
ARC
  5
65
100
AcDbEntity
  8
0
 62
256
370
-1
 48
1.0
  6
BYLAYER
100
AcDbCircle
 10
0.0
 20
0.0
 30
0.0
 40
25.0
100
AcDbArc
 50
172.5
 51
178.8599999999999852
  0
ARC
  5
66
100
AcDbEntity
  8
0
 62
256
370
-1
 48
1.0
  6
BYLAYER
100
AcDbCircle
 10
0.0
 20
0.0
 30
0.0
 40
25.0
100
AcDbArc
 50
181.1399999999999864
 51
187.4999999999999716
  0
ARC
  5
67
100
AcDbEntity
  8
0
 62
256
370
-1
 48
1.0
  6
BYLAYER
100
AcDbCircle
 10
0.0
 20
0.0
 30
0.0
 40
25.0
100
AcDbArc
 50
187.4999999999999716
 51
193.8599999999999852
  0
ARC
  5
68
100
AcDbEntity
  8
0
 62
256
370
-1
 48
1.0
  6
BYLAYER
100
AcDbCircle
 10
0.0
 20
0.0
 30
0.0
 40
25.0
100
AcDbArc
 50
196.1400000000000148
 51
202.5
  0
ARC
  5
69
100
AcDbEntity
  8
0
 62
256
370
-1
 48
1.0
  6
BYLAYER
100
AcDbCircle
 10
0.0
 20
0.0
 30
0.0
 40
25.0
100
AcDbArc
 50
202.4999999999999716
 51
208.8599999999999852
  0
ARC
  5
6A
100
AcDbEntity
  8
0
 62
256
370
-1
 48
1.0
  6
BYLAYER
100
AcDbCircle
 10
0.0
 20
0.0
 30
0.0
 40
25.0
100
AcDbArc
 50
211.1400000000000148
 51
217.5000000000000284
  0
ARC
  5
6B
100
AcDbEntity
  8
0
 62
256
370
-1
 48
1.0
  6
BYLAYER
100
AcDbCircle
 10
0.0
 20
0.0
 30
0.0
 40
25.0
100
AcDbArc
 50
217.5000000000000284
 51
223.8600000000000136
  0
ARC
  5
6C
100
AcDbEntity
  8
0
 62
256
370
-1
 48
1.0
  6
BYLAYER
100
AcDbCircle
 10
0.0
 20
0.0
 30
0.0
 40
25.0
100
AcDbArc
 50
226.1399999999999864
 51
232.4999999999999716
  0
ARC
  5
6D
100
AcDbEntity
  8
0
 62
256
370
-1
 48
1.0
  6
BYLAYER
100
AcDbCircle
 10
0.0
 20
0.0
 30
0.0
 40
25.0
100
AcDbArc
 50
232.4999999999999716
 51
238.8599999999999852
  0
ARC
  5
6E
100
AcDbEntity
  8
0
 62
256
370
-1
 48
1.0
  6
BYLAYER
100
AcDbCircle
 10
0.0
 20
0.0
 30
0.0
 40
25.0
100
AcDbArc
 50
241.1399999999999864
 51
247.4999999999999716
  0
ARC
  5
6F
100
AcDbEntity
  8
0
 62
256
370
-1
 48
1.0
  6
BYLAYER
100
AcDbCircle
 10
0.0
 20
0.0
 30
0.0
 40
25.0
100
AcDbArc
 50
247.4999999999999716
 51
253.8599999999999852
  0
ARC
  5
70
100
AcDbEntity
  8
0
 62
256
370
-1
 48
1.0
  6
BYLAYER
100
AcDbCircle
 10
0.0
 20
0.0
 30
0.0
 40
25.0
100
AcDbArc
 50
256.1399999999999295
 51
262.5
  0
ARC
  5
71
100
AcDbEntity
  8
0
 62
256
370
-1
 48
1.0
  6
BYLAYER
100
AcDbCircle
 10
0.0
 20
0.0
 30
0.0
 40
25.0
100
AcDbArc
 50
262.5
 51
268.8599999999999568
  0
ARC
  5
72
100
AcDbEntity
  8
0
 62
256
370
-1
 48
1.0
  6
BYLAYER
100
AcDbCircle
 10
0.0
 20
0.0
 30
0.0
 40
25.0
100
AcDbArc
 50
271.1400000000000432
 51
277.5
  0
ARC
  5
73
100
AcDbEntity
  8
0
 62
256
370
-1
 48
1.0
  6
BYLAYER
100
AcDbCircle
 10
0.0
 20
0.0
 30
0.0
 40
25.0
100
AcDbArc
 50
277.5
 51
283.8599999999999568
  0
ARC
  5
74
100
AcDbEntity
  8
0
 62
256
370
-1
 48
1.0
  6
BYLAYER
100
AcDbCircle
 10
0.0
 20
0.0
 30
0.0
 40
25.0
100
AcDbArc
 50
286.1400000000000432
 51
292.4999999999999432
  0
ARC
  5
75
100
AcDbEntity
  8
0
 62
256
370
-1
 48
1.0
  6
BYLAYER
100
AcDbCircle
 10
0.0
 20
0.0
 30
0.0
 40
25.0
100
AcDbArc
 50
292.4999999999999432
 51
298.8599999999999568
  0
ARC
  5
76
100
AcDbEntity
  8
0
 62
256
370
-1
 48
1.0
  6
BYLAYER
100
AcDbCircle
 10
0.0
 20
0.0
 30
0.0
 40
25.0
100
AcDbArc
 50
301.1399999999999295
 51
307.5
  0
ARC
  5
77
100
AcDbEntity
  8
0
 62
256
370
-1
 48
1.0
  6
BYLAYER
100
AcDbCircle
 10
0.0
 20
0.0
 30
0.0
 40
25.0
100
AcDbArc
 50
307.4999999999999432
 51
313.8599999999999568
  0
ARC
  5
78
100
AcDbEntity
  8
0
 62
256
370
-1
 48
1.0
  6
BYLAYER
100
AcDbCircle
 10
0.0
 20
0.0
 30
0.0
 40
25.0
100
AcDbArc
 50
316.1399999999999864
 51
322.5
  0
ARC
  5
79
100
AcDbEntity
  8
0
 62
256
370
-1
 48
1.0
  6
BYLAYER
100
AcDbCircle
 10
0.0
 20
0.0
 30
0.0
 40
25.0
100
AcDbArc
 50
322.5
 51
328.8600000000000705
  0
ARC
  5
7A
100
AcDbEntity
  8
0
 62
256
370
-1
 48
1.0
  6
BYLAYER
100
AcDbCircle
 10
0.0
 20
0.0
 30
0.0
 40
25.0
100
AcDbArc
 50
331.1399999999999864
 51
337.4999999999999432
  0
ARC
  5
7B
100
AcDbEntity
  8
0
 62
256
370
-1
 48
1.0
  6
BYLAYER
100
AcDbCircle
 10
0.0
 20
0.0
 30
0.0
 40
25.0
100
AcDbArc
 50
337.4999999999999432
 51
343.8599999999999568
  0
ARC
  5
7C
100
AcDbEntity
  8
0
 62
256
370
-1
 48
1.0
  6
BYLAYER
100
AcDbCircle
 10
0.0
 20
0.0
 30
0.0
 40
25.0
100
AcDbArc
 50
346.1399999999999295
 51
352.4999999999999432
  0
ARC
  5
7D
100
AcDbEntity
  8
0
 62
256
370
-1
 48
1.0
  6
BYLAYER
100
AcDbCircle
 10
0.0
 20
0.0
 30
0.0
 40
25.0
100
AcDbArc
 50
352.5
 51
358.8599999999999568
  0
ARC
  5
7E
100
AcDbEntity
  8
0
 62
256
370
-1
 48
1.0
  6
BYLAYER
100
AcDbCircle
 10
0.0
 20
0.0
 30
0.0
 40
25.0
100
AcDbArc
 50
1.140000000000031
 51
7.499999999999992
  0
ARC
  5
7F
100
AcDbEntity
  8
0
 62
256
370
-1
 48
1.0
  6
BYLAYER
100
AcDbCircle
 10
0.0
 20
0.0
 30
0.0
 40
25.0
100
AcDbArc
 50
7.499999999999992
 51
13.8599999999999532
  0
ARC
  5
80
100
AcDbEntity
  8
0
 62
256
370
-1
 48
1.0
  6
BYLAYER
100
AcDbCircle
 10
0.0
 20
0.0
 30
0.0
 40
25.0
100
AcDbArc
 50
16.1400000000000148
 51
22.4999999999999751
  0
ARC
  5
81
100
AcDbEntity
  8
0
 62
256
370
-1
 48
1.0
  6
BYLAYER
100
AcDbCircle
 10
0.0
 20
0.0
 30
0.0
 40
25.0
100
AcDbArc
 50
22.4999999999999751
 51
28.8599999999999355
  0
ARC
  5
82
100
AcDbEntity
  8
0
 62
256
370
-1
 48
1.0
  6
BYLAYER
100
AcDbCircle
 10
0.0
 20
0.0
 30
0.0
 40
25.0
100
AcDbArc
 50
31.139999999999997
 51
37.4999999999999574
  0
ARC
  5
83
100
AcDbEntity
  8
0
 62
256
370
-1
 48
1.0
  6
BYLAYER
100
AcDbCircle
 10
0.0
 20
0.0
 30
0.0
 40
25.0
100
AcDbArc
 50
37.5000000000000071
 51
43.8600000000000207
  0
ARC
  5
84
100
AcDbEntity
  8
0
 62
256
370
-1
 48
1.0
  6
BYLAYER
100
AcDbCircle
 10
0.0
 20
0.0
 30
0.0
 40
25.0
100
AcDbArc
 50
46.1399999999999864
 51
52.4999999999999929
  0
ARC
  5
85
100
AcDbEntity
  8
0
 62
256
370
-1
 48
1.0
  6
BYLAYER
100
AcDbCircle
 10
0.0
 20
0.0
 30
0.0
 40
25.0
100
AcDbArc
 50
52.4999999999999929
 51
58.8599999999999994
  0
ARC
  5
86
100
AcDbEntity
  8
0
 62
256
370
-1
 48
1.0
  6
BYLAYER
100
AcDbCircle
 10
0.0
 20
0.0
 30
0.0
 40
25.0
100
AcDbArc
 50
61.1399999999999579
 51
67.4999999999999716
  0
ARC
  5
87
100
AcDbEntity
  8
0
 62
256
370
-1
 48
1.0
  6
BYLAYER
100
AcDbCircle
 10
0.0
 20
0.0
 30
0.0
 40
25.0
100
AcDbArc
 50
67.4999999999999716
 51
73.8599999999999852
  0
ARC
  5
88
100
AcDbEntity
  8
0
 62
256
370
-1
 48
1.0
  6
BYLAYER
100
AcDbCircle
 10
0.0
 20
0.0
 30
0.0
 40
25.0
100
AcDbArc
 50
76.1399999999999437
 51
82.4999999999999574
  0
ARC
  5
89
100
AcDbEntity
  8
0
 62
256
370
-1
 48
1.0
  6
BYLAYER
100
AcDbCircle
 10
0.0
 20
0.0
 30
0.0
 40
26.3999999999999986
100
AcDbArc
 50
88.8599999999999994
 51
90.0
  0
ARC
  5
8A
100
AcDbEntity
  8
0
 62
256
370
-1
 48
1.0
  6
BYLAYER
100
AcDbCircle
 10
0.0
 20
0.0
 30
0.0
 40
26.3999999999999986
100
AcDbArc
 50
90.0
 51
91.1400000000000148
  0
ARC
  5
8B
100
AcDbEntity
  8
0
 62
256
370
-1
 48
1.0
  6
BYLAYER
100
AcDbCircle
 10
0.0
 20
0.0
 30
0.0
 40
26.3999999999999986
100
AcDbArc
 50
103.8599999999999852
 51
104.9999999999999858
  0
ARC
  5
8C
100
AcDbEntity
  8
0
 62
256
370
-1
 48
1.0
  6
BYLAYER
100
AcDbCircle
 10
0.0
 20
0.0
 30
0.0
 40
26.3999999999999986
100
AcDbArc
 50
104.9999999999999858
 51
106.1400000000000006
  0
ARC
  5
8D
100
AcDbEntity
  8
0
 62
256
370
-1
 48
1.0
  6
BYLAYER
100
AcDbCircle
 10
0.0
 20
0.0
 30
0.0
 40
26.3999999999999986
100
AcDbArc
 50
118.8599999999999852
 51
120.0
  0
ARC
  5
8E
100
AcDbEntity
  8
0
 62
256
370
-1
 48
1.0
  6
BYLAYER
100
AcDbCircle
 10
0.0
 20
0.0
 30
0.0
 40
26.3999999999999986
100
AcDbArc
 50
120.0
 51
121.1399999999999864
  0
ARC
  5
8F
100
AcDbEntity
  8
0
 62
256
370
-1
 48
1.0
  6
BYLAYER
100
AcDbCircle
 10
0.0
 20
0.0
 30
0.0
 40
26.3999999999999986
100
AcDbArc
 50
133.8599999999999852
 51
135.0
  0
ARC
  5
90
100
AcDbEntity
  8
0
 62
256
370
-1
 48
1.0
  6
BYLAYER
100
AcDbCircle
 10
0.0
 20
0.0
 30
0.0
 40
26.3999999999999986
100
AcDbArc
 50
135.0
 51
136.1400000000000148
  0
ARC
  5
91
100
AcDbEntity
  8
0
 62
256
370
-1
 48
1.0
  6
BYLAYER
100
AcDbCircle
 10
0.0
 20
0.0
 30
0.0
 40
26.3999999999999986
100
AcDbArc
 50
148.8600000000000136
 51
150.0
  0
ARC
  5
92
100
AcDbEntity
  8
0
 62
256
370
-1
 48
1.0
  6
BYLAYER
100
AcDbCircle
 10
0.0
 20
0.0
 30
0.0
 40
26.3999999999999986
100
AcDbArc
 50
150.0
 51
151.1400000000000148
  0
ARC
  5
93
100
AcDbEntity
  8
0
 62
256
370
-1
 48
1.0
  6
BYLAYER
100
AcDbCircle
 10
0.0
 20
0.0
 30
0.0
 40
26.3999999999999986
100
AcDbArc
 50
163.8599999999999852
 51
165.0
  0
ARC
  5
94
100
AcDbEntity
  8
0
 62
256
370
-1
 48
1.0
  6
BYLAYER
100
AcDbCircle
 10
0.0
 20
0.0
 30
0.0
 40
26.3999999999999986
100
AcDbArc
 50
165.0
 51
166.1399999999999864
  0
ARC
  5
95
100
AcDbEntity
  8
0
 62
256
370
-1
 48
1.0
  6
BYLAYER
100
AcDbCircle
 10
0.0
 20
0.0
 30
0.0
 40
26.3999999999999986
100
AcDbArc
 50
178.8599999999999852
 51
180.0
  0
ARC
  5
96
100
AcDbEntity
  8
0
 62
256
370
-1
 48
1.0
  6
BYLAYER
100
AcDbCircle
 10
0.0
 20
0.0
 30
0.0
 40
26.3999999999999986
100
AcDbArc
 50
180.0
 51
181.1399999999999864
  0
ARC
  5
97
100
AcDbEntity
  8
0
 62
256
370
-1
 48
1.0
  6
BYLAYER
100
AcDbCircle
 10
0.0
 20
0.0
 30
0.0
 40
26.3999999999999986
100
AcDbArc
 50
193.8599999999999852
 51
195.0
  0
ARC
  5
98
100
AcDbEntity
  8
0
 62
256
370
-1
 48
1.0
  6
BYLAYER
100
AcDbCircle
 10
0.0
 20
0.0
 30
0.0
 40
26.3999999999999986
100
AcDbArc
 50
195.0
 51
196.1400000000000148
  0
ARC
  5
99
100
AcDbEntity
  8
0
 62
256
370
-1
 48
1.0
  6
BYLAYER
100
AcDbCircle
 10
0.0
 20
0.0
 30
0.0
 40
26.3999999999999986
100
AcDbArc
 50
208.8599999999999852
 51
209.9999999999999716
  0
ARC
  5
9A
100
AcDbEntity
  8
0
 62
256
370
-1
 48
1.0
  6
BYLAYER
100
AcDbCircle
 10
0.0
 20
0.0
 30
0.0
 40
26.3999999999999986
100
AcDbArc
 50
209.9999999999999716
 51
211.1400000000000148
  0
ARC
  5
9B
100
AcDbEntity
  8
0
 62
256
370
-1
 48
1.0
  6
BYLAYER
100
AcDbCircle
 10
0.0
 20
0.0
 30
0.0
 40
26.3999999999999986
100
AcDbArc
 50
223.8600000000000136
 51
225.0
  0
ARC
  5
9C
100
AcDbEntity
  8
0
 62
256
370
-1
 48
1.0
  6
BYLAYER
100
AcDbCircle
 10
0.0
 20
0.0
 30
0.0
 40
26.3999999999999986
100
AcDbArc
 50
225.0
 51
226.1399999999999864
  0
ARC
  5
9D
100
AcDbEntity
  8
0
 62
256
370
-1
 48
1.0
  6
BYLAYER
100
AcDbCircle
 10
0.0
 20
0.0
 30
0.0
 40
26.3999999999999986
100
AcDbArc
 50
238.8599999999999852
 51
240.0
  0
ARC
  5
9E
100
AcDbEntity
  8
0
 62
256
370
-1
 48
1.0
  6
BYLAYER
100
AcDbCircle
 10
0.0
 20
0.0
 30
0.0
 40
26.3999999999999986
100
AcDbArc
 50
240.0
 51
241.1399999999999864
  0
ARC
  5
9F
100
AcDbEntity
  8
0
 62
256
370
-1
 48
1.0
  6
BYLAYER
100
AcDbCircle
 10
0.0
 20
0.0
 30
0.0
 40
26.3999999999999986
100
AcDbArc
 50
253.8599999999999852
 51
255.0
  0
ARC
  5
A0
100
AcDbEntity
  8
0
 62
256
370
-1
 48
1.0
  6
BYLAYER
100
AcDbCircle
 10
0.0
 20
0.0
 30
0.0
 40
26.3999999999999986
100
AcDbArc
 50
255.0
 51
256.1399999999999295
  0
ARC
  5
A1
100
AcDbEntity
  8
0
 62
256
370
-1
 48
1.0
  6
BYLAYER
100
AcDbCircle
 10
0.0
 20
0.0
 30
0.0
 40
26.3999999999999986
100
AcDbArc
 50
268.8599999999999568
 51
270.0
  0
ARC
  5
A2
100
AcDbEntity
  8
0
 62
256
370
-1
 48
1.0
  6
BYLAYER
100
AcDbCircle
 10
0.0
 20
0.0
 30
0.0
 40
26.3999999999999986
100
AcDbArc
 50
270.0
 51
271.1400000000000432
  0
ARC
  5
A3
100
AcDbEntity
  8
0
 62
256
370
-1
 48
1.0
  6
BYLAYER
100
AcDbCircle
 10
0.0
 20
0.0
 30
0.0
 40
26.3999999999999986
100
AcDbArc
 50
283.8599999999999568
 51
285.0
  0
ARC
  5
A4
100
AcDbEntity
  8
0
 62
256
370
-1
 48
1.0
  6
BYLAYER
100
AcDbCircle
 10
0.0
 20
0.0
 30
0.0
 40
26.3999999999999986
100
AcDbArc
 50
285.0
 51
286.1400000000000432
  0
ARC
  5
A5
100
AcDbEntity
  8
0
 62
256
370
-1
 48
1.0
  6
BYLAYER
100
AcDbCircle
 10
0.0
 20
0.0
 30
0.0
 40
26.3999999999999986
100
AcDbArc
 50
298.8599999999999568
 51
300.0
  0
ARC
  5
A6
100
AcDbEntity
  8
0
 62
256
370
-1
 48
1.0
  6
BYLAYER
100
AcDbCircle
 10
0.0
 20
0.0
 30
0.0
 40
26.3999999999999986
100
AcDbArc
 50
300.0
 51
301.1399999999999295
  0
ARC
  5
A7
100
AcDbEntity
  8
0
 62
256
370
-1
 48
1.0
  6
BYLAYER
100
AcDbCircle
 10
0.0
 20
0.0
 30
0.0
 40
26.3999999999999986
100
AcDbArc
 50
313.8599999999999568
 51
314.9999999999999432
  0
ARC
  5
A8
100
AcDbEntity
  8
0
 62
256
370
-1
 48
1.0
  6
BYLAYER
100
AcDbCircle
 10
0.0
 20
0.0
 30
0.0
 40
26.3999999999999986
100
AcDbArc
 50
314.9999999999999432
 51
316.1399999999999864
  0
ARC
  5
A9
100
AcDbEntity
  8
0
 62
256
370
-1
 48
1.0
  6
BYLAYER
100
AcDbCircle
 10
0.0
 20
0.0
 30
0.0
 40
26.3999999999999986
100
AcDbArc
 50
328.8600000000000705
 51
330.0
  0
ARC
  5
AA
100
AcDbEntity
  8
0
 62
256
370
-1
 48
1.0
  6
BYLAYER
100
AcDbCircle
 10
0.0
 20
0.0
 30
0.0
 40
26.3999999999999986
100
AcDbArc
 50
330.0
 51
331.1399999999999864
  0
ARC
  5
AB
100
AcDbEntity
  8
0
 62
256
370
-1
 48
1.0
  6
BYLAYER
100
AcDbCircle
 10
0.0
 20
0.0
 30
0.0
 40
26.3999999999999986
100
AcDbArc
 50
343.8599999999999568
 51
345.0
  0
ARC
  5
AC
100
AcDbEntity
  8
0
 62
256
370
-1
 48
1.0
  6
BYLAYER
100
AcDbCircle
 10
0.0
 20
0.0
 30
0.0
 40
26.3999999999999986
100
AcDbArc
 50
345.0
 51
346.1399999999999295
  0
ARC
  5
AD
100
AcDbEntity
  8
0
 62
256
370
-1
 48
1.0
  6
BYLAYER
100
AcDbCircle
 10
0.0
 20
0.0
 30
0.0
 40
26.3999999999999986
100
AcDbArc
 50
358.8599999999999568
 51
0.0
  0
ARC
  5
AE
100
AcDbEntity
  8
0
 62
256
370
-1
 48
1.0
  6
BYLAYER
100
AcDbCircle
 10
0.0
 20
0.0
 30
0.0
 40
26.3999999999999986
100
AcDbArc
 50
0.0
 51
1.140000000000031
  0
ARC
  5
AF
100
AcDbEntity
  8
0
 62
256
370
-1
 48
1.0
  6
BYLAYER
100
AcDbCircle
 10
0.0
 20
0.0
 30
0.0
 40
26.3999999999999986
100
AcDbArc
 50
13.8599999999999532
 51
14.999999999999984
  0
ARC
  5
B0
100
AcDbEntity
  8
0
 62
256
370
-1
 48
1.0
  6
BYLAYER
100
AcDbCircle
 10
0.0
 20
0.0
 30
0.0
 40
26.3999999999999986
100
AcDbArc
 50
14.999999999999984
 51
16.1400000000000148
  0
ARC
  5
B1
100
AcDbEntity
  8
0
 62
256
370
-1
 48
1.0
  6
BYLAYER
100
AcDbCircle
 10
0.0
 20
0.0
 30
0.0
 40
26.3999999999999986
100
AcDbArc
 50
28.8599999999999355
 51
29.999999999999968
  0
ARC
  5
B2
100
AcDbEntity
  8
0
 62
256
370
-1
 48
1.0
  6
BYLAYER
100
AcDbCircle
 10
0.0
 20
0.0
 30
0.0
 40
26.3999999999999986
100
AcDbArc
 50
29.999999999999968
 51
31.139999999999997
  0
ARC
  5
B3
100
AcDbEntity
  8
0
 62
256
370
-1
 48
1.0
  6
BYLAYER
100
AcDbCircle
 10
0.0
 20
0.0
 30
0.0
 40
26.3999999999999986
100
AcDbArc
 50
43.8600000000000207
 51
45.0
  0
ARC
  5
B4
100
AcDbEntity
  8
0
 62
256
370
-1
 48
1.0
  6
BYLAYER
100
AcDbCircle
 10
0.0
 20
0.0
 30
0.0
 40
26.3999999999999986
100
AcDbArc
 50
45.0
 51
46.1399999999999864
  0
ARC
  5
B5
100
AcDbEntity
  8
0
 62
256
370
-1
 48
1.0
  6
BYLAYER
100
AcDbCircle
 10
0.0
 20
0.0
 30
0.0
 40
26.3999999999999986
100
AcDbArc
 50
58.8599999999999994
 51
59.9999999999999858
  0
ARC
  5
B6
100
AcDbEntity
  8
0
 62
256
370
-1
 48
1.0
  6
BYLAYER
100
AcDbCircle
 10
0.0
 20
0.0
 30
0.0
 40
26.3999999999999986
100
AcDbArc
 50
59.9999999999999858
 51
61.1399999999999579
  0
ARC
  5
B7
100
AcDbEntity
  8
0
 62
256
370
-1
 48
1.0
  6
BYLAYER
100
AcDbCircle
 10
0.0
 20
0.0
 30
0.0
 40
26.3999999999999986
100
AcDbArc
 50
73.8599999999999852
 51
74.9999999999999574
  0
ARC
  5
B8
100
AcDbEntity
  8
0
 62
256
370
-1
 48
1.0
  6
BYLAYER
100
AcDbCircle
 10
0.0
 20
0.0
 30
0.0
 40
26.3999999999999986
100
AcDbArc
 50
74.9999999999999574
 51
76.1399999999999437
  0
ARC
  5
B9
100
AcDbEntity
  8
0
 62
256
370
-1
 48
1.0
  6
BYLAYER
100
AcDbCircle
 10
0.0
 20
0.0
 30
0.0
 40
43.0
100
AcDbArc
 50
84.2991166225544788
 51
90.0
  0
ARC
  5
BA
100
AcDbEntity
  8
0
 62
256
370
-1
 48
1.0
  6
BYLAYER
100
AcDbCircle
 10
0.0
 20
0.0
 30
0.0
 40
43.0
100
AcDbArc
 50
90.0
 51
95.7008833774455212
  0
ARC
  5
BB
100
AcDbEntity
  8
0
 62
256
370
-1
 48
1.0
  6
BYLAYER
100
AcDbCircle
 10
0.0
 20
0.0
 30
0.0
 40
43.0
100
AcDbArc
 50
99.2991166225544788
 51
104.9999999999999858
  0
ARC
  5
BC
100
AcDbEntity
  8
0
 62
256
370
-1
 48
1.0
  6
BYLAYER
100
AcDbCircle
 10
0.0
 20
0.0
 30
0.0
 40
43.0
100
AcDbArc
 50
104.9999999999999858
 51
110.700883377445507
  0
ARC
  5
BD
100
AcDbEntity
  8
0
 62
256
370
-1
 48
1.0
  6
BYLAYER
100
AcDbCircle
 10
0.0
 20
0.0
 30
0.0
 40
43.0
100
AcDbArc
 50
114.2991166225544646
 51
120.0
  0
ARC
  5
BE
100
AcDbEntity
  8
0
 62
256
370
-1
 48
1.0
  6
BYLAYER
100
AcDbCircle
 10
0.0
 20
0.0
 30
0.0
 40
43.0
100
AcDbArc
 50
120.0
 51
125.7008833774454928
  0
ARC
  5
BF
100
AcDbEntity
  8
0
 62
256
370
-1
 48
1.0
  6
BYLAYER
100
AcDbCircle
 10
0.0
 20
0.0
 30
0.0
 40
43.0
100
AcDbArc
 50
129.2991166225544646
 51
135.0
  0
ARC
  5
C0
100
AcDbEntity
  8
0
 62
256
370
-1
 48
1.0
  6
BYLAYER
100
AcDbCircle
 10
0.0
 20
0.0
 30
0.0
 40
43.0
100
AcDbArc
 50
135.0
 51
140.7008833774455354
  0
ARC
  5
C1
100
AcDbEntity
  8
0
 62
256
370
-1
 48
1.0
  6
BYLAYER
100
AcDbCircle
 10
0.0
 20
0.0
 30
0.0
 40
43.0
100
AcDbArc
 50
144.299116622554493
 51
150.0
  0
ARC
  5
C2
100
AcDbEntity
  8
0
 62
256
370
-1
 48
1.0
  6
BYLAYER
100
AcDbCircle
 10
0.0
 20
0.0
 30
0.0
 40
43.0
100
AcDbArc
 50
150.0
 51
155.7008833774455354
  0
ARC
  5
C3
100
AcDbEntity
  8
0
 62
256
370
-1
 48
1.0
  6
BYLAYER
100
AcDbCircle
 10
0.0
 20
0.0
 30
0.0
 40
43.0
100
AcDbArc
 50
159.2991166225544646
 51
165.0
  0
ARC
  5
C4
100
AcDbEntity
  8
0
 62
256
370
-1
 48
1.0
  6
BYLAYER
100
AcDbCircle
 10
0.0
 20
0.0
 30
0.0
 40
43.0
100
AcDbArc
 50
165.0
 51
170.700883377445507
  0
ARC
  5
C5
100
AcDbEntity
  8
0
 62
256
370
-1
 48
1.0
  6
BYLAYER
100
AcDbCircle
 10
0.0
 20
0.0
 30
0.0
 40
43.0
100
AcDbArc
 50
174.2991166225544646
 51
180.0
  0
ARC
  5
C6
100
AcDbEntity
  8
0
 62
256
370
-1
 48
1.0
  6
BYLAYER
100
AcDbCircle
 10
0.0
 20
0.0
 30
0.0
 40
43.0
100
AcDbArc
 50
180.0
 51
185.7008833774455354
  0
ARC
  5
C7
100
AcDbEntity
  8
0
 62
256
370
-1
 48
1.0
  6
BYLAYER
100
AcDbCircle
 10
0.0
 20
0.0
 30
0.0
 40
43.0
100
AcDbArc
 50
189.299116622554493
 51
195.0
  0
ARC
  5
C8
100
AcDbEntity
  8
0
 62
256
370
-1
 48
1.0
  6
BYLAYER
100
AcDbCircle
 10
0.0
 20
0.0
 30
0.0
 40
43.0
100
AcDbArc
 50
195.0
 51
200.700883377445507
  0
ARC
  5
C9
100
AcDbEntity
  8
0
 62
256
370
-1
 48
1.0
  6
BYLAYER
100
AcDbCircle
 10
0.0
 20
0.0
 30
0.0
 40
43.0
100
AcDbArc
 50
204.299116622554493
 51
209.9999999999999716
  0
ARC
  5
CA
100
AcDbEntity
  8
0
 62
256
370
-1
 48
1.0
  6
BYLAYER
100
AcDbCircle
 10
0.0
 20
0.0
 30
0.0
 40
43.0
100
AcDbArc
 50
209.9999999999999716
 51
215.700883377445507
  0
ARC
  5
CB
100
AcDbEntity
  8
0
 62
256
370
-1
 48
1.0
  6
BYLAYER
100
AcDbCircle
 10
0.0
 20
0.0
 30
0.0
 40
43.0
100
AcDbArc
 50
219.2991166225544646
 51
225.0
  0
ARC
  5
CC
100
AcDbEntity
  8
0
 62
256
370
-1
 48
1.0
  6
BYLAYER
100
AcDbCircle
 10
0.0
 20
0.0
 30
0.0
 40
43.0
100
AcDbArc
 50
225.0
 51
230.7008833774454786
  0
ARC
  5
CD
100
AcDbEntity
  8
0
 62
256
370
-1
 48
1.0
  6
BYLAYER
100
AcDbCircle
 10
0.0
 20
0.0
 30
0.0
 40
43.0
100
AcDbArc
 50
234.299116622554493
 51
240.0
  0
ARC
  5
CE
100
AcDbEntity
  8
0
 62
256
370
-1
 48
1.0
  6
BYLAYER
100
AcDbCircle
 10
0.0
 20
0.0
 30
0.0
 40
43.0
100
AcDbArc
 50
240.0
 51
245.7008833774454786
  0
ARC
  5
CF
100
AcDbEntity
  8
0
 62
256
370
-1
 48
1.0
  6
BYLAYER
100
AcDbCircle
 10
0.0
 20
0.0
 30
0.0
 40
43.0
100
AcDbArc
 50
249.299116622554493
 51
255.0
  0
ARC
  5
D0
100
AcDbEntity
  8
0
 62
256
370
-1
 48
1.0
  6
BYLAYER
100
AcDbCircle
 10
0.0
 20
0.0
 30
0.0
 40
43.0
100
AcDbArc
 50
255.0
 51
260.700883377445507
  0
ARC
  5
D1
100
AcDbEntity
  8
0
 62
256
370
-1
 48
1.0
  6
BYLAYER
100
AcDbCircle
 10
0.0
 20
0.0
 30
0.0
 40
43.0
100
AcDbArc
 50
264.299116622554493
 51
270.0
  0
ARC
  5
D2
100
AcDbEntity
  8
0
 62
256
370
-1
 48
1.0
  6
BYLAYER
100
AcDbCircle
 10
0.0
 20
0.0
 30
0.0
 40
43.0
100
AcDbArc
 50
270.0
 51
275.700883377445507
  0
ARC
  5
D3
100
AcDbEntity
  8
0
 62
256
370
-1
 48
1.0
  6
BYLAYER
100
AcDbCircle
 10
0.0
 20
0.0
 30
0.0
 40
43.0
100
AcDbArc
 50
279.2991166225544362
 51
285.0
  0
ARC
  5
D4
100
AcDbEntity
  8
0
 62
256
370
-1
 48
1.0
  6
BYLAYER
100
AcDbCircle
 10
0.0
 20
0.0
 30
0.0
 40
43.0
100
AcDbArc
 50
285.0
 51
290.700883377445507
  0
ARC
  5
D5
100
AcDbEntity
  8
0
 62
256
370
-1
 48
1.0
  6
BYLAYER
100
AcDbCircle
 10
0.0
 20
0.0
 30
0.0
 40
43.0
100
AcDbArc
 50
294.299116622554493
 51
300.0
  0
ARC
  5
D6
100
AcDbEntity
  8
0
 62
256
370
-1
 48
1.0
  6
BYLAYER
100
AcDbCircle
 10
0.0
 20
0.0
 30
0.0
 40
43.0
100
AcDbArc
 50
300.0
 51
305.700883377445507
  0
ARC
  5
D7
100
AcDbEntity
  8
0
 62
256
370
-1
 48
1.0
  6
BYLAYER
100
AcDbCircle
 10
0.0
 20
0.0
 30
0.0
 40
43.0
100
AcDbArc
 50
309.299116622554493
 51
314.9999999999999432
  0
ARC
  5
D8
100
AcDbEntity
  8
0
 62
256
370
-1
 48
1.0
  6
BYLAYER
100
AcDbCircle
 10
0.0
 20
0.0
 30
0.0
 40
43.0
100
AcDbArc
 50
314.9999999999999432
 51
320.700883377445507
  0
ARC
  5
D9
100
AcDbEntity
  8
0
 62
256
370
-1
 48
1.0
  6
BYLAYER
100
AcDbCircle
 10
0.0
 20
0.0
 30
0.0
 40
43.0
100
AcDbArc
 50
324.299116622554493
 51
330.0
  0
ARC
  5
DA
100
AcDbEntity
  8
0
 62
256
370
-1
 48
1.0
  6
BYLAYER
100
AcDbCircle
 10
0.0
 20
0.0
 30
0.0
 40
43.0
100
AcDbArc
 50
330.0
 51
335.7008833774454502
  0
ARC
  5
DB
100
AcDbEntity
  8
0
 62
256
370
-1
 48
1.0
  6
BYLAYER
100
AcDbCircle
 10
0.0
 20
0.0
 30
0.0
 40
43.0
100
AcDbArc
 50
339.299116622554493
 51
345.0
  0
ARC
  5
DC
100
AcDbEntity
  8
0
 62
256
370
-1
 48
1.0
  6
BYLAYER
100
AcDbCircle
 10
0.0
 20
0.0
 30
0.0
 40
43.0
100
AcDbArc
 50
345.0
 51
350.7008833774454502
  0
ARC
  5
DD
100
AcDbEntity
  8
0
 62
256
370
-1
 48
1.0
  6
BYLAYER
100
AcDbCircle
 10
0.0
 20
0.0
 30
0.0
 40
43.0
100
AcDbArc
 50
354.299116622554493
 51
0.0
  0
ARC
  5
DE
100
AcDbEntity
  8
0
 62
256
370
-1
 48
1.0
  6
BYLAYER
100
AcDbCircle
 10
0.0
 20
0.0
 30
0.0
 40
43.0
100
AcDbArc
 50
0.0
 51
5.7008833774455399
  0
ARC
  5
DF
100
AcDbEntity
  8
0
 62
256
370
-1
 48
1.0
  6
BYLAYER
100
AcDbCircle
 10
0.0
 20
0.0
 30
0.0
 40
43.0
100
AcDbArc
 50
9.2991166225544433
 51
14.999999999999984
  0
ARC
  5
E0
100
AcDbEntity
  8
0
 62
256
370
-1
 48
1.0
  6
BYLAYER
100
AcDbCircle
 10
0.0
 20
0.0
 30
0.0
 40
43.0
100
AcDbArc
 50
14.999999999999984
 51
20.7008833774455248
  0
ARC
  5
E1
100
AcDbEntity
  8
0
 62
256
370
-1
 48
1.0
  6
BYLAYER
100
AcDbCircle
 10
0.0
 20
0.0
 30
0.0
 40
43.0
100
AcDbArc
 50
24.299116622554422
 51
29.999999999999968
  0
ARC
  5
E2
100
AcDbEntity
  8
0
 62
256
370
-1
 48
1.0
  6
BYLAYER
100
AcDbCircle
 10
0.0
 20
0.0
 30
0.0
 40
43.0
100
AcDbArc
 50
29.999999999999968
 51
35.700883377445507
  0
ARC
  5
E3
100
AcDbEntity
  8
0
 62
256
370
-1
 48
1.0
  6
BYLAYER
100
AcDbCircle
 10
0.0
 20
0.0
 30
0.0
 40
43.0
100
AcDbArc
 50
39.2991166225545072
 51
45.0
  0
ARC
  5
E4
100
AcDbEntity
  8
0
 62
256
370
-1
 48
1.0
  6
BYLAYER
100
AcDbCircle
 10
0.0
 20
0.0
 30
0.0
 40
43.0
100
AcDbArc
 50
45.0
 51
50.7008833774454857
  0
ARC
  5
E5
100
AcDbEntity
  8
0
 62
256
370
-1
 48
1.0
  6
BYLAYER
100
AcDbCircle
 10
0.0
 20
0.0
 30
0.0
 40
43.0
100
AcDbArc
 50
54.299116622554493
 51
59.9999999999999858
  0
ARC
  5
E6
100
AcDbEntity
  8
0
 62
256
370
-1
 48
1.0
  6
BYLAYER
100
AcDbCircle
 10
0.0
 20
0.0
 30
0.0
 40
43.0
100
AcDbArc
 50
59.9999999999999858
 51
65.7008833774454786
  0
ARC
  5
E7
100
AcDbEntity
  8
0
 62
256
370
-1
 48
1.0
  6
BYLAYER
100
AcDbCircle
 10
0.0
 20
0.0
 30
0.0
 40
43.0
100
AcDbArc
 50
69.2991166225544788
 51
74.9999999999999574
  0
ARC
  5
E8
100
AcDbEntity
  8
0
 62
256
370
-1
 48
1.0
  6
BYLAYER
100
AcDbCircle
 10
0.0
 20
0.0
 30
0.0
 40
43.0
100
AcDbArc
 50
74.9999999999999574
 51
80.7008833774454644
  0
LINE
  5
E9
100
AcDbEntity
  8
0
 62
256
370
-1
 48
1.0
  6
BYLAYER
100
AcDbLine
 10
4.271408927806629
 20
42.7873236574976019
 30
0.0
 11
2.4427053390690956
 21
28.8969408523892604
 31
0.0
  0
LINE
  5
EA
100
AcDbEntity
  8
0
 62
256
370
-1
 48
1.0
  6
BYLAYER
100
AcDbLine
 10
-4.271408927806621
 20
42.7873236574976019
 30
0.0
 11
-2.4427053390690903
 21
28.8969408523892604
 31
0.0
  0
LINE
  5
EB
100
AcDbEntity
  8
0
 62
256
370
-1
 48
1.0
  6
BYLAYER
100
AcDbLine
 10
-15.2000384495361338
 20
40.2238589786288827
 30
0.0
 11
-9.838550810820438
 21
27.2800828067457388
 31
0.0
  0
LINE
  5
EC
100
AcDbEntity
  8
0
 62
256
370
-1
 48
1.0
  6
BYLAYER
100
AcDbLine
 10
-6.9483100535159021
 20
42.4349029385034626
 30
0.0
 11
-5.119606464778375
 21
28.5445201333951211
 31
0.0
  0
LINE
  5
ED
100
AcDbEntity
  8
0
 62
256
370
-1
 48
1.0
  6
BYLAYER
100
AcDbLine
 10
-25.0928104701809787
 20
34.9192047834365127
 30
0.0
 11
-16.5639153037883453
 21
23.8041322002909048
 31
0.0
  0
LINE
  5
EE
100
AcDbEntity
  8
0
 62
256
370
-1
 48
1.0
  6
BYLAYER
100
AcDbLine
 10
-17.6945131873166055
 20
39.1906137112431381
 30
0.0
 11
-12.333025548600915
 21
26.2468375393599942
 31
0.0
  0
LINE
  5
EF
100
AcDbEntity
  8
0
 62
256
370
-1
 48
1.0
  6
BYLAYER
100
AcDbLine
 10
-33.2755489251129646
 20
27.2348644889673217
 30
0.0
 11
-22.1604763419673638
 21
18.7059693225746777
 31
0.0
  0
LINE
  5
F0
100
AcDbEntity
  8
0
 62
256
370
-1
 48
1.0
  6
BYLAYER
100
AcDbLine
 10
-27.2348644889673182
 20
33.2755489251129717
 30
0.0
 11
-18.7059693225746742
 21
22.1604763419673638
 31
0.0
  0
LINE
  5
F1
100
AcDbEntity
  8
0
 62
256
370
-1
 48
1.0
  6
BYLAYER
100
AcDbLine
 10
-39.1906137112431381
 20
17.6945131873166126
 30
0.0
 11
-26.2468375393599942
 21
12.3330255486009204
 31
0.0
  0
LINE
  5
F2
100
AcDbEntity
  8
0
 62
256
370
-1
 48
1.0
  6
BYLAYER
100
AcDbLine
 10
-34.9192047834365127
 20
25.0928104701809858
 30
0.0
 11
-23.8041322002909013
 21
16.5639153037883489
 31
0.0
  0
LINE
  5
F3
100
AcDbEntity
  8
0
 62
256
370
-1
 48
1.0
  6
BYLAYER
100
AcDbLine
 10
-42.4349029385034626
 20
6.9483100535159208
 30
0.0
 11
-28.5445201333951175
 21
5.1196064647783928
 31
0.0
  0
LINE
  5
F4
100
AcDbEntity
  8
0
 62
256
370
-1
 48
1.0
  6
BYLAYER
100
AcDbLine
 10
-40.2238589786288685
 20
15.2000384495361516
 30
0.0
 11
-27.2800828067457353
 21
9.8385508108204434
 31
0.0
  0
LINE
  5
F5
100
AcDbEntity
  8
0
 62
256
370
-1
 48
1.0
  6
BYLAYER
100
AcDbLine
 10
-42.7873236574976019
 20
-4.2714089278066183
 30
0.0
 11
-28.8969408523892604
 21
-2.4427053390690947
 31
0.0
  0
LINE
  5
F6
100
AcDbEntity
  8
0
 62
256
370
-1
 48
1.0
  6
BYLAYER
100
AcDbLine
 10
-42.7873236574976019
 20
4.271408927806629
 30
0.0
 11
-28.8969408523892604
 21
2.4427053390691023
 31
0.0
  0
LINE
  5
F7
100
AcDbEntity
  8
0
 62
256
370
-1
 48
1.0
  6
BYLAYER
100
AcDbLine
 10
-40.2238589786288756
 20
-15.2000384495361409
 30
0.0
 11
-27.2800828067457388
 21
-9.8385508108204363
 31
0.0
  0
LINE
  5
F8
100
AcDbEntity
  8
0
 62
256
370
-1
 48
1.0
  6
BYLAYER
100
AcDbLine
 10
-42.4349029385034626
 20
-6.9483100535159092
 30
0.0
 11
-28.5445201333951211
 21
-5.1196064647783732
 31
0.0
  0
LINE
  5
F9
100
AcDbEntity
  8
0
 62
256
370
-1
 48
1.0
  6
BYLAYER
100
AcDbLine
 10
-34.9192047834365198
 20
-25.0928104701809751
 30
0.0
 11
-23.8041322002909119
 21
-16.5639153037883311
 31
0.0
  0
LINE
  5
FA
100
AcDbEntity
  8
0
 62
256
370
-1
 48
1.0
  6
BYLAYER
100
AcDbLine
 10
-39.1906137112431452
 20
-17.6945131873166019
 30
0.0
 11
-26.2468375393599942
 21
-12.3330255486009133
 31
0.0
  0
LINE
  5
FB
100
AcDbEntity
  8
0
 62
256
370
-1
 48
1.0
  6
BYLAYER
100
AcDbLine
 10
-27.234864488967343
 20
-33.2755489251129504
 30
0.0
 11
-18.7059693225746777
 21
-22.1604763419673603
 31
0.0
  0
LINE
  5
FC
100
AcDbEntity
  8
0
 62
256
370
-1
 48
1.0
  6
BYLAYER
100
AcDbLine
 10
-33.2755489251129717
 20
-27.2348644889673146
 30
0.0
 11
-22.1604763419673638
 21
-18.7059693225746706
 31
0.0
  0
LINE
  5
FD
100
AcDbEntity
  8
0
 62
256
370
-1
 48
1.0
  6
BYLAYER
100
AcDbLine
 10
-17.6945131873166481
 20
-39.1906137112431168
 30
0.0
 11
-12.3330255486009221
 21
-26.2468375393599942
 31
0.0
  0
LINE
  5
FE
100
AcDbEntity
  8
0
 62
256
370
-1
 48
1.0
  6
BYLAYER
100
AcDbLine
 10
-25.0928104701809893
 20
-34.9192047834365127
 30
0.0
 11
-16.5639153037883595
 21
-23.8041322002908942
 31
0.0
  0
LINE
  5
FF
100
AcDbEntity
  8
0
 62
256
370
-1
 48
1.0
  6
BYLAYER
100
AcDbLine
 10
-6.9483100535159226
 20
-42.4349029385034626
 30
0.0
 11
-5.1196064647783945
 21
-28.5445201333951175
 31
0.0
  0
LINE
  5
100
100
AcDbEntity
  8
0
 62
256
370
-1
 48
1.0
  6
BYLAYER
100
AcDbLine
 10
-15.2000384495361534
 20
-40.2238589786288685
 30
0.0
 11
-9.8385508108204451
 21
-27.2800828067457353
 31
0.0
  0
LINE
  5
101
100
AcDbEntity
  8
0
 62
256
370
-1
 48
1.0
  6
BYLAYER
100
AcDbLine
 10
4.2714089278066352
 20
-42.7873236574976019
 30
0.0
 11
2.4427053390690934
 21
-28.8969408523892604
 31
0.0
  0
LINE
  5
102
100
AcDbEntity
  8
0
 62
256
370
-1
 48
1.0
  6
BYLAYER
100
AcDbLine
 10
-4.2714089278066503
 20
-42.7873236574976019
 30
0.0
 11
-2.4427053390691036
 21
-28.8969408523892604
 31
0.0
  0
LINE
  5
103
100
AcDbEntity
  8
0
 62
256
370
-1
 48
1.0
  6
BYLAYER
100
AcDbLine
 10
15.2000384495361391
 20
-40.2238589786288756
 30
0.0
 11
9.8385508108204363
 21
-27.2800828067457388
 31
0.0
  0
LINE
  5
104
100
AcDbEntity
  8
0
 62
256
370
-1
 48
1.0
  6
BYLAYER
100
AcDbLine
 10
6.9483100535158693
 20
-42.4349029385034697
 30
0.0
 11
5.119606464778359
 21
-28.5445201333951246
 31
0.0
  0
LINE
  5
105
100
AcDbEntity
  8
0
 62
256
370
-1
 48
1.0
  6
BYLAYER
100
AcDbLine
 10
25.0928104701809751
 20
-34.9192047834365198
 30
0.0
 11
16.5639153037883311
 21
-23.8041322002909119
 31
0.0
  0
LINE
  5
106
100
AcDbEntity
  8
0
 62
256
370
-1
 48
1.0
  6
BYLAYER
100
AcDbLine
 10
17.6945131873165984
 20
-39.1906137112431452
 30
0.0
 11
12.3330255486009115
 21
-26.2468375393599977
 31
0.0
  0
LINE
  5
107
100
AcDbEntity
  8
0
 62
256
370
-1
 48
1.0
  6
BYLAYER
100
AcDbLine
 10
33.2755489251129504
 20
-27.234864488967343
 30
0.0
 11
22.1604763419673425
 21
-18.705969322574699
 31
0.0
  0
LINE
  5
108
100
AcDbEntity
  8
0
 62
256
370
-1
 48
1.0
  6
BYLAYER
100
AcDbLine
 10
27.2348644889673004
 20
-33.2755489251129859
 30
0.0
 11
18.7059693225746706
 21
-22.1604763419673638
 31
0.0
  0
LINE
  5
109
100
AcDbEntity
  8
0
 62
256
370
-1
 48
1.0
  6
BYLAYER
100
AcDbLine
 10
39.1906137112431168
 20
-17.6945131873166517
 30
0.0
 11
26.2468375393599942
 21
-12.3330255486009221
 31
0.0
  0
LINE
  5
10A
100
AcDbEntity
  8
0
 62
256
370
-1
 48
1.0
  6
BYLAYER
100
AcDbLine
 10
34.9192047834365127
 20
-25.0928104701809893
 30
0.0
 11
23.8041322002908906
 21
-16.5639153037883631
 31
0.0
  0
LINE
  5
10B
100
AcDbEntity
  8
0
 62
256
370
-1
 48
1.0
  6
BYLAYER
100
AcDbLine
 10
42.4349029385034555
 20
-6.9483100535159634
 30
0.0
 11
28.5445201333951175
 21
-5.1196064647783972
 31
0.0
  0
LINE
  5
10C
100
AcDbEntity
  8
0
 62
256
370
-1
 48
1.0
  6
BYLAYER
100
AcDbLine
 10
40.2238589786288685
 20
-15.2000384495361551
 30
0.0
 11
27.2800828067457282
 21
-9.8385508108204718
 31
0.0
  0
LINE
  5
10D
100
AcDbEntity
  8
0
 62
256
370
-1
 48
1.0
  6
BYLAYER
100
AcDbLine
 10
42.7873236574976019
 20
4.2714089278066316
 30
0.0
 11
28.8969408523892604
 21
2.4427053390690912
 31
0.0
  0
LINE
  5
10E
100
AcDbEntity
  8
0
 62
256
370
-1
 48
1.0
  6
BYLAYER
100
AcDbLine
 10
42.7873236574976019
 20
-4.2714089278066529
 30
0.0
 11
28.8969408523892568
 21
-2.4427053390691054
 31
0.0
  0
LINE
  5
10F
100
AcDbEntity
  8
0
 62
256
370
-1
 48
1.0
  6
BYLAYER
100
AcDbLine
 10
40.2238589786288756
 20
15.2000384495361374
 30
0.0
 11
27.2800828067457388
 21
9.8385508108204345
 31
0.0
  0
LINE
  5
110
100
AcDbEntity
  8
0
 62
256
370
-1
 48
1.0
  6
BYLAYER
100
AcDbLine
 10
42.4349029385034697
 20
6.9483100535158666
 30
0.0
 11
28.5445201333951246
 21
5.1196064647783572
 31
0.0
  0
LINE
  5
111
100
AcDbEntity
  8
0
 62
256
370
-1
 48
1.0
  6
BYLAYER
100
AcDbLine
 10
34.9192047834365198
 20
25.0928104701809715
 30
0.0
 11
23.8041322002909119
 21
16.5639153037883275
 31
0.0
  0
LINE
  5
112
100
AcDbEntity
  8
0
 62
256
370
-1
 48
1.0
  6
BYLAYER
100
AcDbLine
 10
39.1906137112431594
 20
17.6945131873165629
 30
0.0
 11
26.2468375393600084
 21
12.3330255486008884
 31
0.0
  0
LINE
  5
113
100
AcDbEntity
  8
0
 62
256
370
-1
 48
1.0
  6
BYLAYER
100
AcDbLine
 10
27.234864488967343
 20
33.2755489251129504
 30
0.0
 11
18.7059693225746813
 21
22.1604763419673603
 31
0.0
  0
LINE
  5
114
100
AcDbEntity
  8
0
 62
256
370
-1
 48
1.0
  6
BYLAYER
100
AcDbLine
 10
33.2755489251129646
 20
27.2348644889673288
 30
0.0
 11
22.1604763419673674
 21
18.705969322574667
 31
0.0
  0
LINE
  5
115
100
AcDbEntity
  8
0
 62
256
370
-1
 48
1.0
  6
BYLAYER
100
AcDbLine
 10
17.6945131873166517
 20
39.1906137112431168
 30
0.0
 11
12.3330255486009239
 21
26.2468375393599942
 31
0.0
  0
LINE
  5
116
100
AcDbEntity
  8
0
 62
256
370
-1
 48
1.0
  6
BYLAYER
100
AcDbLine
 10
25.0928104701809893
 20
34.9192047834365056
 30
0.0
 11
16.5639153037883631
 21
23.8041322002908906
 31
0.0
  0
LINE
  5
117
100
AcDbEntity
  8
0
 62
256
370
-1
 48
1.0
  6
BYLAYER
100
AcDbLine
 10
6.9483100535159661
 20
42.4349029385034484
 30
0.0
 11
5.1196064647783981
 21
28.5445201333951175
 31
0.0
  0
LINE
  5
118
100
AcDbEntity
  8
0
 62
256
370
-1
 48
1.0
  6
BYLAYER
100
AcDbLine
 10
15.2000384495361587
 20
40.2238589786288685
 30
0.0
 11
9.8385508108204718
 21
27.2800828067457282
 31
0.0
  0
LINE
  5
119
100
AcDbEntity
  8
0
 62
256
370
-1
 48
1.0
  6
BYLAYER
100
AcDbLine
 10
2.4427053390690956
 20
28.8969408523892604
 30
0.0
 11
0.5252396346985336
 21
26.3947745458479268
 31
0.0
  0
LINE
  5
11A
100
AcDbEntity
  8
0
 62
256
370
-1
 48
1.0
  6
BYLAYER
100
AcDbLine
 10
-2.4427053390690903
 20
28.8969408523892604
 30
0.0
 11
-0.5252396346985304
 21
26.3947745458479233
 31
0.0
  0
LINE
  5
11B
100
AcDbEntity
  8
0
 62
256
370
-1
 48
1.0
  6
BYLAYER
100
AcDbLine
 10
-9.838550810820438
 20
27.2800828067457388
 30
0.0
 11
-7.3388128717986234
 21
25.3594523922091497
 31
0.0
  0
LINE
  5
11C
100
AcDbEntity
  8
0
 62
256
370
-1
 48
1.0
  6
BYLAYER
100
AcDbLine
 10
-5.119606464778375
 20
28.5445201333951211
 30
0.0
 11
-6.3241278155067286
 21
25.6313364336144964
 31
0.0
  0
LINE
  5
11D
100
AcDbEntity
  8
0
 62
256
370
-1
 48
1.0
  6
BYLAYER
100
AcDbLine
 10
-16.5639153037883453
 20
23.8041322002909048
 30
0.0
 11
-13.6522581396473441
 21
22.5959254665179046
 31
0.0
  0
LINE
  5
11E
100
AcDbEntity
  8
0
 62
256
370
-1
 48
1.0
  6
BYLAYER
100
AcDbLine
 10
-12.333025548600915
 20
26.2468375393599942
 30
0.0
 11
-12.7425164062005702
 21
23.1211651012164374
 31
0.0
  0
LINE
  5
11F
100
AcDbEntity
  8
0
 62
256
370
-1
 48
1.0
  6
BYLAYER
100
AcDbLine
 10
-22.1604763419673638
 20
18.7059693225746777
 30
0.0
 11
-19.0353245767024148
 21
18.2925235618158624
 31
0.0
  0
LINE
  5
120
100
AcDbEntity
  8
0
 62
256
370
-1
 48
1.0
  6
BYLAYER
100
AcDbLine
 10
-18.7059693225746742
 20
22.1604763419673638
 30
0.0
 11
-18.2925235618158624
 21
19.035324576702422
 31
0.0
  0
LINE
  5
121
100
AcDbEntity
  8
0
 62
256
370
-1
 48
1.0
  6
BYLAYER
100
AcDbLine
 10
-26.2468375393599942
 20
12.3330255486009204
 30
0.0
 11
-23.1211651012164374
 21
12.742516406200572
 31
0.0
  0
LINE
  5
122
100
AcDbEntity
  8
0
 62
256
370
-1
 48
1.0
  6
BYLAYER
100
AcDbLine
 10
-23.8041322002909013
 20
16.5639153037883489
 30
0.0
 11
-22.5959254665179081
 21
13.6522581396473477
 31
0.0
  0
LINE
  5
123
100
AcDbEntity
  8
0
 62
256
370
-1
 48
1.0
  6
BYLAYER
100
AcDbLine
 10
-28.5445201333951175
 20
5.1196064647783928
 30
0.0
 11
-25.6313364336144893
 21
6.3241278155067384
 31
0.0
  0
LINE
  5
124
100
AcDbEntity
  8
0
 62
256
370
-1
 48
1.0
  6
BYLAYER
100
AcDbLine
 10
-27.2800828067457353
 20
9.8385508108204434
 30
0.0
 11
-25.3594523922091497
 21
7.338812871798635
 31
0.0
  0
LINE
  5
125
100
AcDbEntity
  8
0
 62
256
370
-1
 48
1.0
  6
BYLAYER
100
AcDbLine
 10
-28.8969408523892604
 20
-2.4427053390690947
 30
0.0
 11
-26.3947745458479197
 21
-0.5252396346985286
 31
0.0
  0
LINE
  5
126
100
AcDbEntity
  8
0
 62
256
370
-1
 48
1.0
  6
BYLAYER
100
AcDbLine
 10
-28.8969408523892604
 20
2.4427053390691023
 30
0.0
 11
-26.3947745458479233
 21
0.5252396346985352
 31
0.0
  0
LINE
  5
127
100
AcDbEntity
  8
0
 62
256
370
-1
 48
1.0
  6
BYLAYER
100
AcDbLine
 10
-27.2800828067457388
 20
-9.8385508108204363
 30
0.0
 11
-25.3594523922091497
 21
-7.3388128717986278
 31
0.0
  0
LINE
  5
128
100
AcDbEntity
  8
0
 62
256
370
-1
 48
1.0
  6
BYLAYER
100
AcDbLine
 10
-28.5445201333951211
 20
-5.1196064647783732
 30
0.0
 11
-25.6313364336144929
 21
-6.3241278155067331
 31
0.0
  0
LINE
  5
129
100
AcDbEntity
  8
0
 62
256
370
-1
 48
1.0
  6
BYLAYER
100
AcDbLine
 10
-23.8041322002909119
 20
-16.5639153037883311
 30
0.0
 11
-22.5959254665179046
 21
-13.6522581396473406
 31
0.0
  0
LINE
  5
12A
100
AcDbEntity
  8
0
 62
256
370
-1
 48
1.0
  6
BYLAYER
100
AcDbLine
 10
-26.2468375393599942
 20
-12.3330255486009133
 30
0.0
 11
-23.121165101216441
 21
-12.7425164062005685
 31
0.0
  0
LINE
  5
12B
100
AcDbEntity
  8
0
 62
256
370
-1
 48
1.0
  6
BYLAYER
100
AcDbLine
 10
-18.7059693225746777
 20
-22.1604763419673603
 30
0.0
 11
-18.2925235618158659
 21
-19.0353245767024148
 31
0.0
  0
LINE
  5
12C
100
AcDbEntity
  8
0
 62
256
370
-1
 48
1.0
  6
BYLAYER
100
AcDbLine
 10
-22.1604763419673638
 20
-18.7059693225746706
 30
0.0
 11
-19.035324576702422
 21
-18.2925235618158624
 31
0.0
  0
LINE
  5
12D
100
AcDbEntity
  8
0
 62
256
370
-1
 48
1.0
  6
BYLAYER
100
AcDbLine
 10
-12.3330255486009221
 20
-26.2468375393599942
 30
0.0
 11
-12.7425164062005951
 21
-23.1211651012164232
 31
0.0
  0
LINE
  5
12E
100
AcDbEntity
  8
0
 62
256
370
-1
 48
1.0
  6
BYLAYER
100
AcDbLine
 10
-16.5639153037883595
 20
-23.8041322002908942
 30
0.0
 11
-13.6522581396473512
 21
-22.5959254665179081
 31
0.0
  0
LINE
  5
12F
100
AcDbEntity
  8
0
 62
256
370
-1
 48
1.0
  6
BYLAYER
100
AcDbLine
 10
-5.1196064647783945
 20
-28.5445201333951175
 30
0.0
 11
-6.3241278155067411
 21
-25.6313364336144893
 31
0.0
  0
LINE
  5
130
100
AcDbEntity
  8
0
 62
256
370
-1
 48
1.0
  6
BYLAYER
100
AcDbLine
 10
-9.8385508108204451
 20
-27.2800828067457353
 30
0.0
 11
-7.3388128717986367
 21
-25.3594523922091497
 31
0.0
  0
LINE
  5
131
100
AcDbEntity
  8
0
 62
256
370
-1
 48
1.0
  6
BYLAYER
100
AcDbLine
 10
2.4427053390690934
 20
-28.8969408523892604
 30
0.0
 11
0.5252396346985388
 21
-26.3947745458479197
 31
0.0
  0
LINE
  5
132
100
AcDbEntity
  8
0
 62
256
370
-1
 48
1.0
  6
BYLAYER
100
AcDbLine
 10
-2.4427053390691036
 20
-28.8969408523892604
 30
0.0
 11
-0.5252396346985485
 21
-26.3947745458479233
 31
0.0
  0
LINE
  5
133
100
AcDbEntity
  8
0
 62
256
370
-1
 48
1.0
  6
BYLAYER
100
AcDbLine
 10
9.8385508108204363
 20
-27.2800828067457388
 30
0.0
 11
7.338812871798627
 21
-25.3594523922091497
 31
0.0
  0
LINE
  5
134
100
AcDbEntity
  8
0
 62
256
370
-1
 48
1.0
  6
BYLAYER
100
AcDbLine
 10
5.119606464778359
 20
-28.5445201333951246
 30
0.0
 11
6.3241278155067091
 21
-25.6313364336145
 31
0.0
  0
LINE
  5
135
100
AcDbEntity
  8
0
 62
256
370
-1
 48
1.0
  6
BYLAYER
100
AcDbLine
 10
16.5639153037883311
 20
-23.8041322002909119
 30
0.0
 11
13.6522581396473406
 21
-22.5959254665179046
 31
0.0
  0
LINE
  5
136
100
AcDbEntity
  8
0
 62
256
370
-1
 48
1.0
  6
BYLAYER
100
AcDbLine
 10
12.3330255486009115
 20
-26.2468375393599977
 30
0.0
 11
12.7425164062005667
 21
-23.121165101216441
 31
0.0
  0
LINE
  5
137
100
AcDbEntity
  8
0
 62
256
370
-1
 48
1.0
  6
BYLAYER
100
AcDbLine
 10
22.1604763419673425
 20
-18.705969322574699
 30
0.0
 11
19.0353245767024042
 21
-18.2925235618158766
 31
0.0
  0
LINE
  5
138
100
AcDbEntity
  8
0
 62
256
370
-1
 48
1.0
  6
BYLAYER
100
AcDbLine
 10
18.7059693225746706
 20
-22.1604763419673638
 30
0.0
 11
18.2925235618158517
 21
-19.0353245767024291
 31
0.0
  0
LINE
  5
139
100
AcDbEntity
  8
0
 62
256
370
-1
 48
1.0
  6
BYLAYER
100
AcDbLine
 10
26.2468375393599942
 20
-12.3330255486009221
 30
0.0
 11
23.1211651012164197
 21
-12.7425164062005951
 31
0.0
  0
LINE
  5
13A
100
AcDbEntity
  8
0
 62
256
370
-1
 48
1.0
  6
BYLAYER
100
AcDbLine
 10
23.8041322002908906
 20
-16.5639153037883631
 30
0.0
 11
22.5959254665179046
 21
-13.6522581396473512
 31
0.0
  0
LINE
  5
13B
100
AcDbEntity
  8
0
 62
256
370
-1
 48
1.0
  6
BYLAYER
100
AcDbLine
 10
28.5445201333951175
 20
-5.1196064647783972
 30
0.0
 11
25.6313364336144858
 21
-6.3241278155067651
 31
0.0
  0
LINE
  5
13C
100
AcDbEntity
  8
0
 62
256
370
-1
 48
1.0
  6
BYLAYER
100
AcDbLine
 10
27.2800828067457282
 20
-9.8385508108204718
 30
0.0
 11
25.3594523922091497
 21
-7.3388128717986376
 31
0.0
  0
LINE
  5
13D
100
AcDbEntity
  8
0
 62
256
370
-1
 48
1.0
  6
BYLAYER
100
AcDbLine
 10
28.8969408523892604
 20
2.4427053390690912
 30
0.0
 11
26.3947745458479197
 21
0.5252396346985372
 31
0.0
  0
LINE
  5
13E
100
AcDbEntity
  8
0
 62
256
370
-1
 48
1.0
  6
BYLAYER
100
AcDbLine
 10
28.8969408523892568
 20
-2.4427053390691054
 30
0.0
 11
26.3947745458479233
 21
-0.5252396346985502
 31
0.0
  0
LINE
  5
13F
100
AcDbEntity
  8
0
 62
256
370
-1
 48
1.0
  6
BYLAYER
100
AcDbLine
 10
27.2800828067457388
 20
9.8385508108204345
 30
0.0
 11
25.3594523922091497
 21
7.3388128717986252
 31
0.0
  0
LINE
  5
140
100
AcDbEntity
  8
0
 62
256
370
-1
 48
1.0
  6
BYLAYER
100
AcDbLine
 10
28.5445201333951246
 20
5.1196064647783572
 30
0.0
 11
25.6313364336145
 21
6.3241278155067073
 31
0.0
  0
LINE
  5
141
100
AcDbEntity
  8
0
 62
256
370
-1
 48
1.0
  6
BYLAYER
100
AcDbLine
 10
23.8041322002909119
 20
16.5639153037883275
 30
0.0
 11
22.5959254665179081
 21
13.652258139647337
 31
0.0
  0
LINE
  5
142
100
AcDbEntity
  8
0
 62
256
370
-1
 48
1.0
  6
BYLAYER
100
AcDbLine
 10
26.2468375393600084
 20
12.3330255486008884
 30
0.0
 11
23.1211651012164552
 21
12.7425164062005454
 31
0.0
  0
LINE
  5
143
100
AcDbEntity
  8
0
 62
256
370
-1
 48
1.0
  6
BYLAYER
100
AcDbLine
 10
18.7059693225746813
 20
22.1604763419673603
 30
0.0
 11
18.2925235618158766
 21
19.0353245767024042
 31
0.0
  0
LINE
  5
144
100
AcDbEntity
  8
0
 62
256
370
-1
 48
1.0
  6
BYLAYER
100
AcDbLine
 10
22.1604763419673674
 20
18.705969322574667
 30
0.0
 11
19.0353245767024148
 21
18.2925235618158695
 31
0.0
  0
LINE
  5
145
100
AcDbEntity
  8
0
 62
256
370
-1
 48
1.0
  6
BYLAYER
100
AcDbLine
 10
12.3330255486009239
 20
26.2468375393599942
 30
0.0
 11
12.7425164062005969
 21
23.1211651012164197
 31
0.0
  0
LINE
  5
146
100
AcDbEntity
  8
0
 62
256
370
-1
 48
1.0
  6
BYLAYER
100
AcDbLine
 10
16.5639153037883631
 20
23.8041322002908906
 30
0.0
 11
13.6522581396473512
 21
22.5959254665179046
 31
0.0
  0
LINE
  5
147
100
AcDbEntity
  8
0
 62
256
370
-1
 48
1.0
  6
BYLAYER
100
AcDbLine
 10
5.1196064647783981
 20
28.5445201333951175
 30
0.0
 11
6.3241278155067659
 21
25.6313364336144822
 31
0.0
  0
LINE
  5
148
100
AcDbEntity
  8
0
 62
256
370
-1
 48
1.0
  6
BYLAYER
100
AcDbLine
 10
9.8385508108204718
 20
27.2800828067457282
 30
0.0
 11
7.3388128717986394
 21
25.3594523922091497
 31
0.0
  0
LINE
  5
149
100
AcDbEntity
  8
0
 62
256
370
-1
 48
1.0
  6
BYLAYER
100
AcDbLine
 10
0.5252396346985336
 20
26.3947745458479268
 30
0.0
 11
0.4973860177069447
 21
24.9950516532650795
 31
0.0
  0
LINE
  5
14A
100
AcDbEntity
  8
0
 62
256
370
-1
 48
1.0
  6
BYLAYER
100
AcDbLine
 10
-0.5252396346985304
 20
26.3947745458479233
 30
0.0
 11
-0.4973860177069417
 21
24.995051653265083
 31
0.0
  0
LINE
  5
14B
100
AcDbEntity
  8
0
 62
256
370
-1
 48
1.0
  6
BYLAYER
100
AcDbLine
 10
-6.3241278155067286
 20
25.6313364336144964
 30
0.0
 11
-5.9887574010480389
 21
24.2720988954682753
 31
0.0
  0
LINE
  5
14C
100
AcDbEntity
  8
0
 62
256
370
-1
 48
1.0
  6
BYLAYER
100
AcDbLine
 10
-7.3388128717986234
 20
25.3594523922091497
 30
0.0
 11
-6.9496334013244558
 21
24.0146329471677582
 31
0.0
  0
LINE
  5
14D
100
AcDbEntity
  8
0
 62
256
370
-1
 48
1.0
  6
BYLAYER
100
AcDbLine
 10
-12.7425164062005702
 20
23.1211651012164374
 30
0.0
 11
-12.0667768998111455
 21
21.8950427094852635
 31
0.0
  0
LINE
  5
14E
100
AcDbEntity
  8
0
 62
256
370
-1
 48
1.0
  6
BYLAYER
100
AcDbLine
 10
-13.6522581396473441
 20
22.5959254665179046
 30
0.0
 11
-12.9282747534539251
 21
21.3976566917783231
 31
0.0
  0
LINE
  5
14F
100
AcDbEntity
  8
0
 62
256
370
-1
 48
1.0
  6
BYLAYER
100
AcDbLine
 10
-18.2925235618158624
 20
19.035324576702422
 30
0.0
 11
-17.3224654941438097
 21
18.0258755461197175
 31
0.0
  0
LINE
  5
150
100
AcDbEntity
  8
0
 62
256
370
-1
 48
1.0
  6
BYLAYER
100
AcDbLine
 10
-19.0353245767024148
 20
18.2925235618158624
 30
0.0
 11
-18.025875546119714
 21
17.3224654941438132
 31
0.0
  0
LINE
  5
151
100
AcDbEntity
  8
0
 62
256
370
-1
 48
1.0
  6
BYLAYER
100
AcDbLine
 10
-22.5959254665179081
 20
13.6522581396473477
 30
0.0
 11
-21.3976566917783231
 21
12.9282747534539286
 31
0.0
  0
LINE
  5
152
100
AcDbEntity
  8
0
 62
256
370
-1
 48
1.0
  6
BYLAYER
100
AcDbLine
 10
-23.1211651012164374
 20
12.742516406200572
 30
0.0
 11
-21.8950427094852635
 21
12.0667768998111509
 31
0.0
  0
LINE
  5
153
100
AcDbEntity
  8
0
 62
256
370
-1
 48
1.0
  6
BYLAYER
100
AcDbLine
 10
-25.3594523922091497
 20
7.338812871798635
 30
0.0
 11
-24.0146329471677582
 21
6.9496334013244656
 31
0.0
  0
LINE
  5
154
100
AcDbEntity
  8
0
 62
256
370
-1
 48
1.0
  6
BYLAYER
100
AcDbLine
 10
-25.6313364336144893
 20
6.3241278155067384
 30
0.0
 11
-24.2720988954682717
 21
5.9887574010480487
 31
0.0
  0
LINE
  5
155
100
AcDbEntity
  8
0
 62
256
370
-1
 48
1.0
  6
BYLAYER
100
AcDbLine
 10
-26.3947745458479233
 20
0.5252396346985352
 30
0.0
 11
-24.995051653265083
 21
0.4973860177069462
 31
0.0
  0
LINE
  5
156
100
AcDbEntity
  8
0
 62
256
370
-1
 48
1.0
  6
BYLAYER
100
AcDbLine
 10
-26.3947745458479197
 20
-0.5252396346985286
 30
0.0
 11
-24.995051653265083
 21
-0.4973860177069401
 31
0.0
  0
LINE
  5
157
100
AcDbEntity
  8
0
 62
256
370
-1
 48
1.0
  6
BYLAYER
100
AcDbLine
 10
-25.6313364336144929
 20
-6.3241278155067331
 30
0.0
 11
-24.2720988954682717
 21
-5.9887574010480433
 31
0.0
  0
LINE
  5
158
100
AcDbEntity
  8
0
 62
256
370
-1
 48
1.0
  6
BYLAYER
100
AcDbLine
 10
-25.3594523922091497
 20
-7.3388128717986278
 30
0.0
 11
-24.0146329471677582
 21
-6.9496334013244594
 31
0.0
  0
LINE
  5
159
100
AcDbEntity
  8
0
 62
256
370
-1
 48
1.0
  6
BYLAYER
100
AcDbLine
 10
-23.121165101216441
 20
-12.7425164062005685
 30
0.0
 11
-21.8950427094852671
 21
-12.0667768998111438
 31
0.0
  0
LINE
  5
15A
100
AcDbEntity
  8
0
 62
256
370
-1
 48
1.0
  6
BYLAYER
100
AcDbLine
 10
-22.5959254665179046
 20
-13.6522581396473406
 30
0.0
 11
-21.3976566917783231
 21
-12.9282747534539233
 31
0.0
  0
LINE
  5
15B
100
AcDbEntity
  8
0
 62
256
370
-1
 48
1.0
  6
BYLAYER
100
AcDbLine
 10
-19.035324576702422
 20
-18.2925235618158624
 30
0.0
 11
-18.0258755461197175
 21
-17.3224654941438097
 31
0.0
  0
LINE
  5
15C
100
AcDbEntity
  8
0
 62
256
370
-1
 48
1.0
  6
BYLAYER
100
AcDbLine
 10
-18.2925235618158659
 20
-19.0353245767024148
 30
0.0
 11
-17.3224654941438168
 21
-18.025875546119714
 31
0.0
  0
LINE
  5
15D
100
AcDbEntity
  8
0
 62
256
370
-1
 48
1.0
  6
BYLAYER
100
AcDbLine
 10
-13.6522581396473512
 20
-22.5959254665179081
 30
0.0
 11
-12.9282747534539322
 21
-21.3976566917783231
 31
0.0
  0
LINE
  5
15E
100
AcDbEntity
  8
0
 62
256
370
-1
 48
1.0
  6
BYLAYER
100
AcDbLine
 10
-12.7425164062005951
 20
-23.1211651012164232
 30
0.0
 11
-12.0667768998111704
 21
-21.8950427094852529
 31
0.0
  0
LINE
  5
15F
100
AcDbEntity
  8
0
 62
256
370
-1
 48
1.0
  6
BYLAYER
100
AcDbLine
 10
-7.3388128717986367
 20
-25.3594523922091497
 30
0.0
 11
-6.9496334013244665
 21
-24.0146329471677582
 31
0.0
  0
LINE
  5
160
100
AcDbEntity
  8
0
 62
256
370
-1
 48
1.0
  6
BYLAYER
100
AcDbLine
 10
-6.3241278155067411
 20
-25.6313364336144893
 30
0.0
 11
-5.9887574010480513
 21
-24.2720988954682717
 31
0.0
  0
LINE
  5
161
100
AcDbEntity
  8
0
 62
256
370
-1
 48
1.0
  6
BYLAYER
100
AcDbLine
 10
-0.5252396346985485
 20
-26.3947745458479233
 30
0.0
 11
-0.4973860177069588
 21
-24.995051653265083
 31
0.0
  0
LINE
  5
162
100
AcDbEntity
  8
0
 62
256
370
-1
 48
1.0
  6
BYLAYER
100
AcDbLine
 10
0.5252396346985388
 20
-26.3947745458479197
 30
0.0
 11
0.4973860177069497
 21
-24.995051653265083
 31
0.0
  0
LINE
  5
163
100
AcDbEntity
  8
0
 62
256
370
-1
 48
1.0
  6
BYLAYER
100
AcDbLine
 10
6.3241278155067091
 20
-25.6313364336145
 30
0.0
 11
5.9887574010480202
 21
-24.2720988954682753
 31
0.0
  0
LINE
  5
164
100
AcDbEntity
  8
0
 62
256
370
-1
 48
1.0
  6
BYLAYER
100
AcDbLine
 10
7.338812871798627
 20
-25.3594523922091497
 30
0.0
 11
6.9496334013244585
 21
-24.0146329471677582
 31
0.0
  0
LINE
  5
165
100
AcDbEntity
  8
0
 62
256
370
-1
 48
1.0
  6
BYLAYER
100
AcDbLine
 10
12.7425164062005667
 20
-23.121165101216441
 30
0.0
 11
12.0667768998111438
 21
-21.8950427094852671
 31
0.0
  0
LINE
  5
166
100
AcDbEntity
  8
0
 62
256
370
-1
 48
1.0
  6
BYLAYER
100
AcDbLine
 10
13.6522581396473406
 20
-22.5959254665179046
 30
0.0
 11
12.9282747534539233
 21
-21.3976566917783231
 31
0.0
  0
LINE
  5
167
100
AcDbEntity
  8
0
 62
256
370
-1
 48
1.0
  6
BYLAYER
100
AcDbLine
 10
18.2925235618158517
 20
-19.0353245767024291
 30
0.0
 11
17.322465494143799
 21
-18.0258755461197282
 31
0.0
  0
LINE
  5
168
100
AcDbEntity
  8
0
 62
256
370
-1
 48
1.0
  6
BYLAYER
100
AcDbLine
 10
19.0353245767024042
 20
-18.2925235618158766
 30
0.0
 11
18.0258755461197033
 21
-17.3224654941438239
 31
0.0
  0
LINE
  5
169
100
AcDbEntity
  8
0
 62
256
370
-1
 48
1.0
  6
BYLAYER
100
AcDbLine
 10
22.5959254665179046
 20
-13.6522581396473512
 30
0.0
 11
21.3976566917783195
 21
-12.9282747534539322
 31
0.0
  0
LINE
  5
16A
100
AcDbEntity
  8
0
 62
256
370
-1
 48
1.0
  6
BYLAYER
100
AcDbLine
 10
23.1211651012164197
 20
-12.7425164062005951
 30
0.0
 11
21.8950427094852529
 21
-12.0667768998111722
 31
0.0
  0
LINE
  5
16B
100
AcDbEntity
  8
0
 62
256
370
-1
 48
1.0
  6
BYLAYER
100
AcDbLine
 10
25.3594523922091497
 20
-7.3388128717986376
 30
0.0
 11
24.0146329471677582
 21
-6.9496334013244683
 31
0.0
  0
LINE
  5
16C
100
AcDbEntity
  8
0
 62
256
370
-1
 48
1.0
  6
BYLAYER
100
AcDbLine
 10
25.6313364336144858
 20
-6.3241278155067651
 30
0.0
 11
24.2720988954682646
 21
-5.9887574010480735
 31
0.0
  0
LINE
  5
16D
100
AcDbEntity
  8
0
 62
256
370
-1
 48
1.0
  6
BYLAYER
100
AcDbLine
 10
26.3947745458479233
 20
-0.5252396346985502
 30
0.0
 11
24.995051653265083
 21
-0.4973860177069604
 31
0.0
  0
LINE
  5
16E
100
AcDbEntity
  8
0
 62
256
370
-1
 48
1.0
  6
BYLAYER
100
AcDbLine
 10
26.3947745458479197
 20
0.5252396346985372
 30
0.0
 11
24.995051653265083
 21
0.4973860177069482
 31
0.0
  0
LINE
  5
16F
100
AcDbEntity
  8
0
 62
256
370
-1
 48
1.0
  6
BYLAYER
100
AcDbLine
 10
25.6313364336145
 20
6.3241278155067073
 30
0.0
 11
24.2720988954682753
 21
5.9887574010480185
 31
0.0
  0
LINE
  5
170
100
AcDbEntity
  8
0
 62
256
370
-1
 48
1.0
  6
BYLAYER
100
AcDbLine
 10
25.3594523922091497
 20
7.3388128717986252
 30
0.0
 11
24.0146329471677582
 21
6.9496334013244567
 31
0.0
  0
LINE
  5
171
100
AcDbEntity
  8
0
 62
256
370
-1
 48
1.0
  6
BYLAYER
100
AcDbLine
 10
23.1211651012164552
 20
12.7425164062005454
 30
0.0
 11
21.8950427094852778
 21
12.0667768998111224
 31
0.0
  0
LINE
  5
172
100
AcDbEntity
  8
0
 62
256
370
-1
 48
1.0
  6
BYLAYER
100
AcDbLine
 10
22.5959254665179081
 20
13.652258139647337
 30
0.0
 11
21.3976566917783266
 21
12.9282747534539197
 31
0.0
  0
LINE
  5
173
100
AcDbEntity
  8
0
 62
256
370
-1
 48
1.0
  6
BYLAYER
100
AcDbLine
 10
19.0353245767024148
 20
18.2925235618158695
 30
0.0
 11
18.025875546119714
 21
17.3224654941438168
 31
0.0
  0
LINE
  5
174
100
AcDbEntity
  8
0
 62
256
370
-1
 48
1.0
  6
BYLAYER
100
AcDbLine
 10
18.2925235618158766
 20
19.0353245767024042
 30
0.0
 11
17.3224654941438274
 21
18.0258755461197033
 31
0.0
  0
LINE
  5
175
100
AcDbEntity
  8
0
 62
256
370
-1
 48
1.0
  6
BYLAYER
100
AcDbLine
 10
13.6522581396473512
 20
22.5959254665179046
 30
0.0
 11
12.9282747534539322
 21
21.3976566917783195
 31
0.0
  0
LINE
  5
176
100
AcDbEntity
  8
0
 62
256
370
-1
 48
1.0
  6
BYLAYER
100
AcDbLine
 10
12.7425164062005969
 20
23.1211651012164197
 30
0.0
 11
12.066776899811174
 21
21.8950427094852529
 31
0.0
  0
LINE
  5
177
100
AcDbEntity
  8
0
 62
256
370
-1
 48
1.0
  6
BYLAYER
100
AcDbLine
 10
7.3388128717986394
 20
25.3594523922091497
 30
0.0
 11
6.9496334013244692
 21
24.0146329471677582
 31
0.0
  0
LINE
  5
178
100
AcDbEntity
  8
0
 62
256
370
-1
 48
1.0
  6
BYLAYER
100
AcDbLine
 10
6.3241278155067659
 20
25.6313364336144822
 30
0.0
 11
5.9887574010480753
 21
24.2720988954682646
 31
0.0
  0
CIRCLE
  5
179
100
AcDbEntity
  8
0
 62
256
370
-1
 48
1.0
  6
BYLAYER
100
AcDbCircle
 10
0.0
 20
0.0
 30
0.0
 40
50.0
  0
CIRCLE
  5
17A
100
AcDbEntity
  8
0
 62
256
370
-1
 48
1.0
  6
BYLAYER
100
AcDbCircle
 10
0.0
 20
0.0
 30
0.0
 40
62.5
  0
CIRCLE
  5
17B
100
AcDbEntity
  8
0
 62
256
370
-1
 48
1.0
  6
BYLAYER
100
AcDbCircle
 10
0.0
 20
0.0
 30
0.0
 40
12.5
  0
CIRCLE
  5
17C
100
AcDbEntity
  8
0
 62
256
370
-1
 48
1.0
  6
BYLAYER
100
AcDbCircle
 10
0.0
 20
0.0
 30
0.0
 40
20.0
  0
ARC
  5
17D
100
AcDbEntity
  8
0
 62
256
370
-1
 48
1.0
  6
BYLAYER
100
AcDbCircle
 10
0.0
 20
0.0
 30
0.0
 40
24.0
100
AcDbArc
 50
112.5
 51
157.5000000000000284
  0
ARC
  5
17E
100
AcDbEntity
  8
0
 62
256
370
-1
 48
1.0
  6
BYLAYER
100
AcDbCircle
 10
0.0
 20
0.0
 30
0.0
 40
24.0
100
AcDbArc
 50
202.4999999999999716
 51
247.4999999999999716
  0
ARC
  5
17F
100
AcDbEntity
  8
0
 62
256
370
-1
 48
1.0
  6
BYLAYER
100
AcDbCircle
 10
0.0
 20
0.0
 30
0.0
 40
24.0
100
AcDbArc
 50
292.5000000000000568
 51
337.4999999999999432
  0
ARC
  5
180
100
AcDbEntity
  8
0
 62
256
370
-1
 48
1.0
  6
BYLAYER
100
AcDbCircle
 10
0.0
 20
0.0
 30
0.0
 40
24.0
100
AcDbArc
 50
22.4999999999999858
 51
67.5
  0
LINE
  5
181
100
AcDbEntity
  8
0
 62
256
370
-1
 48
1.0
  6
BYLAYER
100
AcDbLine
 10
9.1844023767621561
 20
22.1731087802708835
 30
0.0
 11
7.6536686473017967
 21
18.4775906502257357
 31
0.0
  0
LINE
  5
182
100
AcDbEntity
  8
0
 62
256
370
-1
 48
1.0
  6
BYLAYER
100
AcDbLine
 10
-9.1844023767621543
 20
22.1731087802708835
 30
0.0
 11
-7.6536686473017959
 21
18.4775906502257357
 31
0.0
  0
LINE
  5
183
100
AcDbEntity
  8
0
 62
256
370
-1
 48
1.0
  6
BYLAYER
100
AcDbLine
 10
-22.1731087802708799
 20
9.1844023767621561
 30
0.0
 11
-18.4775906502257357
 21
7.6536686473017976
 31
0.0
  0
LINE
  5
184
100
AcDbEntity
  8
0
 62
256
370
-1
 48
1.0
  6
BYLAYER
100
AcDbLine
 10
-22.1731087802708835
 20
-9.1844023767621525
 30
0.0
 11
-18.4775906502257357
 21
-7.6536686473017941
 31
0.0
  0
LINE
  5
185
100
AcDbEntity
  8
0
 62
256
370
-1
 48
1.0
  6
BYLAYER
100
AcDbLine
 10
-9.1844023767621668
 20
-22.1731087802708764
 30
0.0
 11
-7.6536686473018065
 21
-18.4775906502257321
 31
0.0
  0
LINE
  5
186
100
AcDbEntity
  8
0
 62
256
370
-1
 48
1.0
  6
BYLAYER
100
AcDbLine
 10
9.1844023767621596
 20
-22.1731087802708799
 30
0.0
 11
7.6536686473017994
 21
-18.4775906502257321
 31
0.0
  0
LINE
  5
187
100
AcDbEntity
  8
0
 62
256
370
-1
 48
1.0
  6
BYLAYER
100
AcDbLine
 10
22.1731087802708764
 20
-9.1844023767621685
 30
0.0
 11
18.4775906502257321
 21
-7.6536686473018083
 31
0.0
  0
LINE
  5
188
100
AcDbEntity
  8
0
 62
256
370
-1
 48
1.0
  6
BYLAYER
100
AcDbLine
 10
22.1731087802708835
 20
9.1844023767621543
 30
0.0
 11
18.4775906502257357
 21
7.6536686473017959
 31
0.0
  0
ENDSEC
  0
SECTION
  2
OBJECTS
  0
DICTIONARY
  5
C
100
AcDbDictionary
280
0
281
1
  3
ACAD_GROUP
350
D
  3
ACAD_LAYOUT
350
1A
  3
ACAD_MLINESTYLE
350
17
  3
ACAD_PLOTSETTINGS
350
19
  3
ACAD_PLOTSTYLENAME
350
E
  3
AcDbVariableDictionary
350
189
  3
QCAD_OBJECTS
350
18A
  0
DICTIONARY
  5
D
100
AcDbDictionary
280
0
281
1
  0
ACDBDICTIONARYWDFLT
  5
E
100
AcDbDictionary
281
1
  3
Normal
350
F
100
AcDbDictionaryWithDefault
340
F
  0
ACDBPLACEHOLDER
  5
F
  0
DICTIONARY
  5
17
100
AcDbDictionary
280
0
281
1
  3
Standard
350
18
  0
MLINESTYLE
  5
18
100
AcDbMlineStyle
  2
STANDARD
 70
0
  3

 62
256
 51
90.0
 52
90.0
 71
2
 49
0.5
 62
256
  6
BYLAYER
 49
-0.5
 62
256
  6
BYLAYER
  0
DICTIONARY
  5
19
100
AcDbDictionary
280
0
281
1
  0
DICTIONARY
  5
1A
100
AcDbDictionary
281
1
  3
Layout1
350
1E
  3
Layout2
350
26
  3
Model
350
22
  0
LAYOUT
  5
1E
100
AcDbPlotSettings
  1

  2
none_device
  4

  6

 40
0.0
 41
0.0
 42
0.0
 43
0.0
 44
0.0
 45
0.0
 46
0.0
 47
0.0
 48
0.0
 49
0.0
140
0.0
141
0.0
142
1.0
143
1.0
 70
688
 72
0
 73
0
 74
5
  7

 75
16
147
1.0
148
0.0
149
0.0
100
AcDbLayout
  1
Layout1
 70
1
 71
1
 10
0.0
 20
0.0
 11
420.0
 21
297.0
 12
0.0
 22
0.0
 32
0.0
 14
100000000000000000000.0
 24
100000000000000000000.0
 34
100000000000000000000.0
 15
-100000000000000000000.0
 25
-100000000000000000000.0
 35
-100000000000000000000.0
146
0.0
 13
0.0
 23
0.0
 33
0.0
 16
1.0
 26
0.0
 36
0.0
 17
0.0
 27
1.0
 37
0.0
 76
0
330
1B
  0
LAYOUT
  5
22
100
AcDbPlotSettings
  1

  2
none_device
  4

  6

 40
0.0
 41
0.0
 42
0.0
 43
0.0
 44
0.0
 45
0.0
 46
0.0
 47
0.0
 48
0.0
 49
0.0
140
0.0
141
0.0
142
1.0
143
1.0
 70
1712
 72
0
 73
0
 74
0
  7

 75
0
147
1.0
148
0.0
149
0.0
100
AcDbLayout
  1
Model
 70
1
 71
0
 10
0.0
 20
0.0
 11
12.0
 21
9.0
 12
0.0
 22
0.0
 32
0.0
 14
0.0
 24
0.0
 34
0.0
 15
0.0
 25
0.0
 35
0.0
146
0.0
 13
0.0
 23
0.0
 33
0.0
 16
1.0
 26
0.0
 36
0.0
 17
0.0
 27
1.0
 37
0.0
 76
0
330
1F
  0
LAYOUT
  5
26
100
AcDbPlotSettings
  1

  2
none_device
  4

  6

 40
0.0
 41
0.0
 42
0.0
 43
0.0
 44
0.0
 45
0.0
 46
0.0
 47
0.0
 48
0.0
 49
0.0
140
0.0
141
0.0
142
1.0
143
1.0
 70
688
 72
0
 73
0
 74
5
  7

 75
16
147
1.0
148
0.0
149
0.0
100
AcDbLayout
  1
Layout2
 70
1
 71
2
 10
0.0
 20
0.0
 11
12.0
 21
9.0
 12
0.0
 22
0.0
 32
0.0
 14
0.0
 24
0.0
 34
0.0
 15
0.0
 25
0.0
 35
0.0
146
0.0
 13
0.0
 23
0.0
 33
0.0
 16
1.0
 26
0.0
 36
0.0
 17
0.0
 27
1.0
 37
0.0
 76
0
330
23
  0
DICTIONARY
  5
189
100
AcDbDictionary
281
1
  3
DIMASSOC
350
18C
  3
HIDETEXT
350
18B
  0
DICTIONARYVAR
  5
18B
100
DictionaryVariables
280
0
  1
2
  0
DICTIONARYVAR
  5
18C
100
DictionaryVariables
280
0
  1
1
  0
DICTIONARY
  5
18A
100
AcDbDictionary
281
1
  3
ColorSettings/BackgroundColor
350
18D
  3
ColorSettings/ColorMode
350
18E
  3
Grid/DisplayGrid00
350
18F
  3
Grid/DisplayGrid01
350
190
  3
Grid/DisplayGrid02
350
191
  3
Grid/DisplayGrid03
350
192
  3
Grid/GridSpacingX00
350
193
  3
Grid/GridSpacingX01
350
194
  3
Grid/GridSpacingX02
350
195
  3
Grid/GridSpacingX03
350
196
  3
Grid/GridSpacingY00
350
197
  3
Grid/GridSpacingY01
350
198
  3
Grid/GridSpacingY02
350
199
  3
Grid/GridSpacingY03
350
19A
  3
Grid/IsometricGrid00
350
19B
  3
Grid/IsometricGrid01
350
19C
  3
Grid/IsometricGrid02
350
19D
  3
Grid/IsometricGrid03
350
19E
  3
Grid/IsometricProjection00
350
19F
  3
Grid/IsometricProjection01
350
1A0
  3
Grid/IsometricProjection02
350
1A1
  3
Grid/IsometricProjection03
350
1A2
  3
Grid/MetaGridSpacingX00
350
1A3
  3
Grid/MetaGridSpacingX01
350
1A4
  3
Grid/MetaGridSpacingX02
350
1A5
  3
Grid/MetaGridSpacingX03
350
1A6
  3
Grid/MetaGridSpacingY00
350
1A7
  3
Grid/MetaGridSpacingY01
350
1A8
  3
Grid/MetaGridSpacingY02
350
1A9
  3
Grid/MetaGridSpacingY03
350
1AA
  3
MultiPageSettings/Columns
350
1AB
  3
MultiPageSettings/GlueMarginsBottom
350
1AC
  3
MultiPageSettings/GlueMarginsLeft
350
1AD
  3
MultiPageSettings/GlueMarginsRight
350
1AE
  3
MultiPageSettings/GlueMarginsTop
350
1AF
  3
MultiPageSettings/PrintCropMarks
350
1B0
  3
MultiPageSettings/Rows
350
1B1
  3
PageSettings/OffsetX
350
1B2
  3
PageSettings/OffsetY
350
1B3
  3
PageSettings/PageOrientation
350
1B4
  3
PageSettings/PaperHeight
350
1B5
  3
PageSettings/PaperWidth
350
1B6
  3
PageSettings/Scale
350
1B7
  3
PageSettings/ShowPaperBorders
350
1B8
  3
PageTagSettings/EnablePageTags
350
1B9
  3
PageTagSettings/TagAlignment
350
1BA
  3
PageTagSettings/TagFont
350
1BB
  3
PageTagSettings/TagPosition
350
1BC
  3
QCADVersion
350
1BD
  3
UnitSettings/PaperUnit
350
1BE
  3
ViewportCenter
350
1BF
  3
ViewportHeight
350
1C0
  3
ViewportWidth
350
1C1
  0
XRECORD
  5
18D
330
18A
100
AcDbXrecord
280
1
1000
White
  0
XRECORD
  5
18E
330
18A
100
AcDbXrecord
280
1
1000
FullColor
  0
XRECORD
  5
18F
330
18A
100
AcDbXrecord
280
1
290
1
  0
XRECORD
  5
190
330
18A
100
AcDbXrecord
280
1
290
1
  0
XRECORD
  5
191
330
18A
100
AcDbXrecord
280
1
290
1
  0
XRECORD
  5
192
330
18A
100
AcDbXrecord
280
1
290
1
  0
XRECORD
  5
193
330
18A
100
AcDbXrecord
280
1
1000
auto
  0
XRECORD
  5
194
330
18A
100
AcDbXrecord
280
1
1000
auto
  0
XRECORD
  5
195
330
18A
100
AcDbXrecord
280
1
1000
auto
  0
XRECORD
  5
196
330
18A
100
AcDbXrecord
280
1
1000
auto
  0
XRECORD
  5
197
330
18A
100
AcDbXrecord
280
1
1000
auto
  0
XRECORD
  5
198
330
18A
100
AcDbXrecord
280
1
1000
auto
  0
XRECORD
  5
199
330
18A
100
AcDbXrecord
280
1
1000
auto
  0
XRECORD
  5
19A
330
18A
100
AcDbXrecord
280
1
1000
auto
  0
XRECORD
  5
19B
330
18A
100
AcDbXrecord
280
1
290
0
  0
XRECORD
  5
19C
330
18A
100
AcDbXrecord
280
1
290
0
  0
XRECORD
  5
19D
330
18A
100
AcDbXrecord
280
1
290
0
  0
XRECORD
  5
19E
330
18A
100
AcDbXrecord
280
1
290
0
  0
XRECORD
  5
19F
330
18A
100
AcDbXrecord
280
1
 90
65537
  0
XRECORD
  5
1A0
330
18A
100
AcDbXrecord
280
1
 90
65537
  0
XRECORD
  5
1A1
330
18A
100
AcDbXrecord
280
1
 90
65537
  0
XRECORD
  5
1A2
330
18A
100
AcDbXrecord
280
1
 90
65537
  0
XRECORD
  5
1A3
330
18A
100
AcDbXrecord
280
1
1000
auto
  0
XRECORD
  5
1A4
330
18A
100
AcDbXrecord
280
1
1000
auto
  0
XRECORD
  5
1A5
330
18A
100
AcDbXrecord
280
1
1000
auto
  0
XRECORD
  5
1A6
330
18A
100
AcDbXrecord
280
1
1000
auto
  0
XRECORD
  5
1A7
330
18A
100
AcDbXrecord
280
1
1000
auto
  0
XRECORD
  5
1A8
330
18A
100
AcDbXrecord
280
1
1000
auto
  0
XRECORD
  5
1A9
330
18A
100
AcDbXrecord
280
1
1000
auto
  0
XRECORD
  5
1AA
330
18A
100
AcDbXrecord
280
1
1000
auto
  0
XRECORD
  5
1AB
330
18A
100
AcDbXrecord
280
1
 90
1
  0
XRECORD
  5
1AC
330
18A
100
AcDbXrecord
280
1
 40
10.0
  0
XRECORD
  5
1AD
330
18A
100
AcDbXrecord
280
1
 40
10.0
  0
XRECORD
  5
1AE
330
18A
100
AcDbXrecord
280
1
 40
10.0
  0
XRECORD
  5
1AF
330
18A
100
AcDbXrecord
280
1
 40
10.0
  0
XRECORD
  5
1B0
330
18A
100
AcDbXrecord
280
1
290
0
  0
XRECORD
  5
1B1
330
18A
100
AcDbXrecord
280
1
 90
1
  0
XRECORD
  5
1B2
330
18A
100
AcDbXrecord
280
1
 40
0.0
  0
XRECORD
  5
1B3
330
18A
100
AcDbXrecord
280
1
 40
0.0
  0
XRECORD
  5
1B4
330
18A
100
AcDbXrecord
280
1
1000
Portrait
  0
XRECORD
  5
1B5
330
18A
100
AcDbXrecord
280
1
 40
297.0
  0
XRECORD
  5
1B6
330
18A
100
AcDbXrecord
280
1
 40
210.0
  0
XRECORD
  5
1B7
330
18A
100
AcDbXrecord
280
1
1000
1:1
  0
XRECORD
  5
1B8
330
18A
100
AcDbXrecord
280
1
290
1
  0
XRECORD
  5
1B9
330
18A
100
AcDbXrecord
280
1
290
0
  0
XRECORD
  5
1BA
330
18A
100
AcDbXrecord
280
1
1000
Inside
  0
XRECORD
  5
1BB
330
18A
100
AcDbXrecord
280
1
1000
Arial,10,-1,5,50,0,0,0,0,0
  0
XRECORD
  5
1BC
330
18A
100
AcDbXrecord
280
1
1000
TopLeft
  0
XRECORD
  5
1BD
330
18A
100
AcDbXrecord
280
1
1000
3.27.8
  0
XRECORD
  5
1BE
330
18A
100
AcDbXrecord
280
1
 90
4
  0
XRECORD
  5
1C0
330
18A
100
AcDbXrecord
280
1
 40
133.6111481975968047
  0
XRECORD
  5
1C1
330
18A
100
AcDbXrecord
280
1
 40
275.0817757009345996
  0
ENDSEC
  0
EOF
